<?xml version="1.0" encoding="utf-8"?>
<!-- Generator: Adobe Illustrator 28.0.0, SVG Export Plug-In . SVG Version: 6.00 Build 0)  -->
<svg version="1.1" id="Layer_2_00000065763295568789445850000015712972672679518906_"
	 xmlns="http://www.w3.org/2000/svg" xmlns:xlink="http://www.w3.org/1999/xlink" x="0px" y="0px" viewBox="0 0 544.7 527"
	 style="enable-background:new 0 0 544.7 527;" xml:space="preserve">
<style type="text/css">
	.st0{fill:#FAEA13;}
</style>
<g id="Layer_1-2">
	<g>
		<g>
			<path class="st0" d="M116.5,144.2c-31.5,0-57.2-25.6-57.2-57.2S85,29.9,116.5,29.9s57.2,25.6,57.2,57.2S148,144.2,116.5,144.2z
				 M116.5,44.9c-23.2,0-42.2,18.9-42.2,42.2s18.9,42.2,42.2,42.2s42.2-18.9,42.2-42.2S139.8,44.9,116.5,44.9z"/>
		</g>
		<g>
			<path class="st0" d="M156.4,527c-18.3,0-33.2-15.1-33.2-33.8V376c0-3.6-3-6.6-6.6-6.6s-6.6,3-6.6,6.6v117.2
				c0,18.6-14.9,33.8-33.2,33.8c-17.7,0-31-14.5-31-33.8V227.1c0-4.1,3.4-7.5,7.5-7.5s7.5,3.4,7.5,7.5v266.1c0,9,5,18.8,16,18.8
				c10.1,0,18.2-8.4,18.2-18.8V376c0-11.9,9.7-21.6,21.6-21.6s21.6,9.7,21.6,21.6v117.2c0,10.3,8.2,18.8,18.2,18.8
				c11,0,16-9.7,16-18.8V255.3c0-17.6,6.9-34.2,19.3-46.6l52.2-52.2c2.9-2.9,7.7-2.9,10.6,0c2.9,2.9,2.9,7.7,0,10.6l-52.2,52.2
				c-9.6,9.6-15,22.4-15,36v237.9C187.4,512.5,174.1,527,156.4,527z"/>
		</g>
		<g>
			<path class="st0" d="M29.3,363.2C12.6,363.2,0,349.5,0,331.4V219.5c0-32.1,26.1-58.2,58.2-58.2h104.9c7.4,0,14.4-2.9,19.6-8.1
				l25.1-25.1c2.9-2.9,7.7-2.9,10.6,0c2.9,2.9,2.9,7.7,0,10.6l-25.1,25.1c-8.1,8.1-18.8,12.5-30.2,12.5H58.2
				c-23.8,0-43.2,19.4-43.2,43.2v111.9c0,8.1,4.5,16.8,14.3,16.8c9,0,16.3-7.5,16.3-16.8c0-4.1,3.4-7.5,7.5-7.5s7.5,3.4,7.5,7.5
				C60.6,348.9,46.6,363.2,29.3,363.2z"/>
		</g>
		<g>
			<path class="st0" d="M428.2,144.2c-31.5,0-57.2-25.6-57.2-57.2s25.6-57.2,57.2-57.2c31.5,0,57.2,25.6,57.2,57.2
				S459.7,144.2,428.2,144.2z M428.2,44.9c-23.3,0-42.2,18.9-42.2,42.2s18.9,42.2,42.2,42.2c23.2,0,42.2-18.9,42.2-42.2
				S451.5,44.9,428.2,44.9z"/>
		</g>
		<g>
			<path class="st0" d="M468.1,527c-18.3,0-33.2-15.1-33.2-33.8V376c0-3.6-3-6.6-6.6-6.6s-6.6,3-6.6,6.6v117.2
				c0,18.6-14.9,33.8-33.2,33.8c-17.7,0-31-14.5-31-33.8V255.3c0-13.6-5.3-26.4-15-36l-52.2-52.2c-2.9-2.9-2.9-7.7,0-10.6
				c2.9-2.9,7.7-2.9,10.6,0l52.2,52.2c12.5,12.5,19.3,29,19.3,46.6v237.9c0,9,5,18.8,16,18.8c10.1,0,18.2-8.4,18.2-18.8V376
				c0-11.9,9.7-21.6,21.6-21.6s21.6,9.7,21.6,21.6v117.2c0,10.3,8.2,18.8,18.2,18.8c11,0,16-9.7,16-18.8V227.1
				c0-4.1,3.4-7.5,7.5-7.5s7.5,3.4,7.5,7.5v266.1C499.1,512.5,485.8,527,468.1,527z"/>
		</g>
		<g>
			<path class="st0" d="M515.4,363.2c-17.3,0-31.3-14.3-31.3-31.8c0-4.1,3.4-7.5,7.5-7.5s7.5,3.4,7.5,7.5c0,9.3,7.3,16.8,16.3,16.8
				c9.8,0,14.3-8.7,14.3-16.8V219.5c0-23.8-19.4-43.2-43.2-43.2H381.6c-11.4,0-22.2-4.4-30.2-12.5l-25.1-25.1
				c-2.9-2.9-2.9-7.7,0-10.6c2.9-2.9,7.7-2.9,10.6,0l25.1,25.1c5.2,5.2,12.2,8.1,19.6,8.1h104.9c32.1,0,58.2,26.1,58.2,58.2v111.9
				C544.7,349.5,532.1,363.2,515.4,363.2z"/>
		</g>
		<g>
			<path class="st0" d="M272.4,147.7c-1.3,0-2.7-0.4-3.9-1.1l-1.9-1.1c-0.1-0.1-0.2-0.2-0.4-0.2c-9.5-5.8-77-48.9-77-97.5
				C189.2,21.4,210.7,0,237,0c13.6,0,26.4,5.8,35.4,15.7C281.3,5.8,294.1,0,307.7,0c26.3,0,47.8,21.4,47.8,47.8
				c0,49.3-69.4,92.9-77.4,97.7l-1.9,1.1C275,147.3,273.7,147.7,272.4,147.7z M237,15c-18.1,0-32.8,14.7-32.8,32.8
				c0,32.5,43.4,68.1,68.1,83.6c24.7-15.5,68.1-51.1,68.1-83.6c0-18.1-14.7-32.8-32.8-32.8c-12,0-23,6.6-28.8,17.1
				c-1.3,2.4-3.8,3.9-6.6,3.9l0,0c-2.7,0-5.3-1.5-6.6-3.9C260,21.5,249,15,237,15z"/>
		</g>
		<g>
			<path class="st0" d="M323.2,55.3c-4.1,0-7.5-3.4-7.5-7.5c0-4.4-3.6-8-8-8c-4.1,0-7.5-3.4-7.5-7.5s3.4-7.5,7.5-7.5
				c12.7,0,23,10.3,23,23C330.7,51.9,327.4,55.3,323.2,55.3z"/>
		</g>
	</g>
</g>
</svg>
