<?xml version="1.0" encoding="utf-8"?>
<!-- Generator: Adobe Illustrator 28.0.0, SVG Export Plug-In . SVG Version: 6.00 Build 0)  -->
<svg version="1.1" id="Layer_2_00000069355948001685861570000017768259174656009893_"
	 xmlns="http://www.w3.org/2000/svg" xmlns:xlink="http://www.w3.org/1999/xlink" x="0px" y="0px" viewBox="0 0 527 527"
	 style="enable-background:new 0 0 527 527;" xml:space="preserve">
<style type="text/css">
	.st0{fill:#FAEA13;}
</style>
<g id="Layer_1-2">
	<g>
		<g>
			<path class="st0" d="M307.7,310.4c-8.6,0-17.6-3.6-24.6-10.5L264,280.8c-2.9-2.9-2.9-7.7,0-10.6s7.7-2.9,10.6,0l19.1,19.1
				c7.1,7,17.3,8.3,22.8,2.8c5.4-5.4,4.1-15.6-3-22.6L210.3,166.3c-2.9-2.9-2.9-7.7,0-10.6c2.9-2.9,7.7-2.9,10.6,0L324,258.8
				c12.9,12.9,14.3,32.5,3,43.8C321.9,307.8,314.9,310.4,307.7,310.4z"/>
		</g>
		<g>
			<path class="st0" d="M260.8,324.6c-8.6,0-17.6-3.6-24.6-10.5l-37.9-37.9c-2.9-2.9-2.9-7.7,0-10.6s7.7-2.9,10.6,0l37.9,37.9
				c7.1,7,17.3,8.3,22.8,2.8s4.2-15.7-2.9-22.8l-86.8-86.8c-2.9-2.9-2.9-7.7,0-10.6c2.9-2.9,7.7-2.9,10.6,0l86.8,86.8
				c12.9,12.9,14.2,32.6,2.9,44C275,322,268.1,324.6,260.8,324.6z"/>
		</g>
		<g>
			<path class="st0" d="M197.8,318c-0.8,0-1.7,0-2.5-0.1c-7.5-0.6-14.7-4.1-20.4-9.7c0,0-69.2-69.2-69.6-69.6
				C64.8,198,52.5,171,41.7,147.1c-9-19.9-16.8-37.1-39.5-59.7c-2.9-2.9-2.9-7.7,0-10.6s7.7-2.9,10.6,0
				c24.6,24.6,33.3,43.8,42.5,64.1c10.8,23.8,22,48.4,60.6,87c0.4,0.4,69.6,69.6,69.6,69.6c3.1,3.1,7.1,5,11,5.4
				c3.5,0.3,6.6-0.7,8.7-2.8c4.6-4.6,3.4-13.7-2.6-19.7l-53.2-53.2c-2.9-2.9-2.9-7.7,0-10.6c2.9-2.9,7.7-2.9,10.6,0l53.2,53.2
				c12,12,13.2,30.3,2.6,40.9C211.1,315.4,204.8,318,197.8,318z"/>
		</g>
		<g>
			<path class="st0" d="M313.6,255.5c-0.8,0-1.7,0-2.5-0.1c-8.1-0.6-16-4.3-22.1-10.4c-2.9-2.9-2.9-7.7,0-10.6
				c2.9-2.9,7.7-2.9,10.6,0c3.6,3.6,8.1,5.7,12.6,6.1c4.1,0.3,7.8-0.9,10.3-3.4c5.4-5.4,4.1-15.6-3-22.6l-103-103
				c-2.6-2.6-2.9-6.6-0.9-9.6c2.1-3,6-4.1,9.3-2.6c10.7,4.9,20,8.9,38.5,17c28.1,12.3,47.5,12.6,55.5,9.1c2-0.9,3.3-1.9,3.7-3.2
				c3.4-9.5-20.8-21.2-40.3-30.7c-3.4-1.6-6.7-3.3-10.1-4.9c-8.3-4.1-14.6-7.7-20.7-11.2c-17.5-10-31.3-17.9-78.7-29.1
				c-7.9-1.9-15.8-2.7-24.1-3.6c-23.1-2.5-46.9-5.1-71.8-30C74,9.8,74,5,76.9,2.1s7.7-2.9,10.6,0c21.2,21.2,41.4,23.3,62.8,25.6
				c8.4,0.9,17.1,1.8,25.9,3.9c49.5,11.7,64.9,20.5,82.7,30.6c5.9,3.4,12,6.9,19.9,10.8c3.3,1.6,6.6,3.2,9.9,4.9
				c13.3,6.4,25.8,12.5,35,19.4c12.3,9.3,16.6,19.3,12.9,29.8c-1.9,5.2-6,9.3-11.9,11.9c-14.6,6.3-39.8,2.9-67.3-9.1
				c-0.7-0.3-1.3-0.6-2-0.9l74.7,74.6c12.9,12.9,14.3,32.5,3,43.8C328,252.8,321.1,255.5,313.6,255.5z"/>
		</g>
		<g>
			<path class="st0" d="M366,318.9c-1.9,0-3.8-0.7-5.3-2.2l-12.3-12.3c-2.9-2.9-2.9-7.7,0-10.6s7.7-2.9,10.6,0l12.3,12.3
				c2.9,2.9,2.9,7.7,0,10.6C369.9,318.2,367.9,318.9,366,318.9z"/>
		</g>
		<g>
			<path class="st0" d="M335.6,349.3c-1.9,0-3.8-0.7-5.3-2.2l-15-15c-2.9-2.9-2.9-7.7,0-10.6s7.7-2.9,10.6,0l15,15
				c2.9,2.9,2.9,7.7,0,10.6C339.5,348.6,337.6,349.3,335.6,349.3z"/>
		</g>
		<g>
			<path class="st0" d="M305.1,379.8c-1.9,0-3.8-0.7-5.3-2.2l-29.2-29.2c-2.9-2.9-2.9-7.7,0-10.6s7.7-2.9,10.6,0l29.2,29.2
				c2.9,2.9,2.9,7.7,0,10.6C309,379.1,307,379.8,305.1,379.8z"/>
		</g>
		<g>
			<path class="st0" d="M444.9,527c-1.9,0-3.8-0.7-5.3-2.2c-22.6-22.6-39.8-30.4-59.7-39.5c-23.8-10.8-50.9-23.1-91.4-63.7l-79-79
				c-2.9-2.9-2.9-7.7,0-10.6s7.7-2.9,10.6,0l79,79c38.6,38.6,63.2,49.8,87,60.6c20.3,9.2,39.6,18,64.1,42.5c2.9,2.9,2.9,7.7,0,10.6
				C448.7,526.3,446.8,527,444.9,527z"/>
		</g>
		<g>
			<path class="st0" d="M519.5,452.4c-1.9,0-3.8-0.7-5.3-2.2c-24.9-24.9-27.5-48.8-30-71.8c-0.9-8.3-1.7-16.2-3.6-24.1
				c-11.2-47.4-19.1-61.2-29.1-78.7c-3.5-6.1-7.1-12.4-11.2-20.7c-1.7-3.3-3.3-6.7-4.9-10.1c-9.4-19.5-21.2-43.7-30.6-40.3
				c-1.2,0.4-2.3,1.7-3.2,3.7c-3.5,8-3.2,27.3,9.1,55.4l0.5,1.1c9.9,22.7,13.6,31.2,20.8,46.9c3.6,7.8,3.4,16.9-0.5,24.9
				c-5.5,11.1-12.6,32.5,1.2,51.8c2.4,3.4,1.6,8.1-1.7,10.5c-3.4,2.4-8,1.7-10.5-1.7c-18.4-25.7-9.5-53.1-2.5-67.2
				c1.9-3.9,2.1-8.3,0.4-12c-7.3-15.8-11-24.3-20.9-47.1l-0.5-1.1c-12-27.5-15.4-52.7-9.1-67.3c2.5-5.9,6.7-10,11.9-11.9
				c10.5-3.7,20.5,0.6,29.8,12.9c6.9,9.1,13,21.7,19.4,35c1.6,3.3,3.2,6.7,4.9,10c3.9,7.9,7.4,14,10.8,19.9
				c10.2,17.8,19,33.2,30.6,82.7c2.1,8.9,3,17.5,3.9,25.9c2.3,21.4,4.5,41.7,25.6,62.8c2.9,2.9,2.9,7.7,0,10.6
				C523.3,451.7,521.4,452.4,519.5,452.4z"/>
		</g>
		<g>
			<path class="st0" d="M420.9,312.8c-1.9,0-3.8-0.7-5.3-2.2l-59.9-59.9c-2.9-2.9-2.9-7.7,0-10.6c2.9-2.9,7.7-2.9,10.6,0l59.9,59.9
				c2.9,2.9,2.9,7.7,0,10.6C424.7,312,422.8,312.8,420.9,312.8z"/>
		</g>
	</g>
</g>
</svg>
