<?xml version="1.0" encoding="utf-8"?>
<!-- Generator: Adobe Illustrator 28.0.0, SVG Export Plug-In . SVG Version: 6.00 Build 0)  -->
<svg version="1.1" id="Layer_2_00000175323047218401507660000003380869392840038308_"
	 xmlns="http://www.w3.org/2000/svg" xmlns:xlink="http://www.w3.org/1999/xlink" x="0px" y="0px" viewBox="0 0 468 527"
	 style="enable-background:new 0 0 468 527;" xml:space="preserve">
<style type="text/css">
	.st0{fill:#0125A5;}
</style>
<g id="Layer_1-2">
	<g>
		<g>
			<path class="st0" d="M400.1,527H68c-18.3,0-33.4-13.8-35.1-32l-18-195.3c-0.4-4.1,2.7-7.8,6.8-8.2c4.1-0.4,7.8,2.7,8.2,6.8
				l18,195.3c1,10.5,9.7,18.4,20.2,18.4h332.1c10.5,0,19.2-7.9,20.2-18.4l18-195.3c0.4-4.1,4-7.2,8.2-6.8c4.1,0.4,7.2,4,6.8,8.2
				l-18,195.3C433.5,513.2,418.4,527,400.1,527z"/>
		</g>
		<g>
			<path class="st0" d="M460.5,302.3H7.5c-4.1,0-7.5-3.4-7.5-7.5v-54c0-4.1,3.4-7.5,7.5-7.5h453c4.1,0,7.5,3.4,7.5,7.5v54
				C468,298.9,464.7,302.3,460.5,302.3z M15,287.3h438v-39H15V287.3z"/>
		</g>
		<g>
			<g>
				<path class="st0" d="M117.9,484.7h-29c-4.1,0-7.5-3.4-7.5-7.5V335.9c0-4.1,3.4-7.5,7.5-7.5h29c4.1,0,7.5,3.4,7.5,7.5v141.3
					C125.4,481.4,122.1,484.7,117.9,484.7z M96.4,469.7h14V343.4h-14V469.7z"/>
			</g>
			<g>
				<path class="st0" d="M205,484.7h-29c-4.1,0-7.5-3.4-7.5-7.5V335.9c0-4.1,3.4-7.5,7.5-7.5h29c4.1,0,7.5,3.4,7.5,7.5v141.3
					C212.5,481.4,209.1,484.7,205,484.7z M183.5,469.7h14V343.4h-14V469.7z"/>
			</g>
			<g>
				<path class="st0" d="M292,484.7h-29c-4.1,0-7.5-3.4-7.5-7.5V335.9c0-4.1,3.4-7.5,7.5-7.5h29c4.1,0,7.5,3.4,7.5,7.5v141.3
					C299.5,481.4,296.2,484.7,292,484.7z M270.5,469.7h14V343.4h-14V469.7z"/>
			</g>
			<g>
				<path class="st0" d="M379.1,484.7h-29c-4.1,0-7.5-3.4-7.5-7.5V335.9c0-4.1,3.4-7.5,7.5-7.5h29c4.1,0,7.5,3.4,7.5,7.5v141.3
					C386.6,481.4,383.2,484.7,379.1,484.7z M357.6,469.7h14V343.4h-14V469.7z"/>
			</g>
		</g>
		<g>
			<path class="st0" d="M237.5,276.5c-1.5,0-3-0.4-4.3-1.3c-3.4-2.4-4.2-7-1.9-10.4L361.1,78.4c2.4-3.4,7-4.2,10.4-1.9
				c3.4,2.4,4.2,7,1.9,10.4L243.7,273.3C242.2,275.3,239.9,276.5,237.5,276.5z"/>
		</g>
		<g>
			<g>
				<path class="st0" d="M115.4,116.1c-0.9,0-1.7-0.1-2.6-0.5c-3.9-1.4-5.9-5.7-4.5-9.6c0.3-0.9,6.3-19.7-13.1-40.9
					c-2.8-3.1-2.6-7.8,0.5-10.6s7.8-2.6,10.6,0.5c25.9,28.3,16.6,55,16.2,56.1C121.3,114.2,118.4,116.1,115.4,116.1z"/>
			</g>
			<g>
				<path class="st0" d="M184.2,248c-3.5,0-6.7-2.5-7.4-6.1c-6.3-33.6-13.3-64.8-14.6-68.5c-1.6-3.8,0.1-8.1,3.9-9.8
					c3.8-1.7,8.2,0,9.9,3.8c2.1,4.7,10.3,43.4,15.6,71.7c0.8,4.1-1.9,8-6,8.7C185.1,248,184.6,248,184.2,248z M162.2,173.5
					C162.2,173.5,162.2,173.6,162.2,173.5C162.2,173.6,162.2,173.5,162.2,173.5z"/>
			</g>
			<g>
				<path class="st0" d="M49.3,249c-0.5,0-0.9,0-1.4-0.1c-4.1-0.8-6.8-4.7-6-8.7c5.3-28.7,13.7-67.8,15.8-72.7
					c1.7-3.8,6.1-5.5,9.9-3.8c3.7,1.7,5.5,6,3.9,9.8c-1.3,3.7-8.6,36.1-14.8,69.4C56,246.5,52.9,249,49.3,249z M71.5,173.5
					C71.5,173.5,71.4,173.5,71.5,173.5C71.4,173.5,71.5,173.5,71.5,173.5z"/>
			</g>
			<g>
				<path class="st0" d="M116.1,215.4L116.1,215.4c-2.1,0-4-0.9-5.4-2.3L101,203c-1.6-1.6-8.7-9.4-13.9-20.9
					c-6.8,1.3-12.9,1.6-17.3,1.6c-3,0-5-0.1-5.7-0.2l-14.8-1.3c-2.1-0.2-4-1.2-5.2-2.8c-1.3-1.6-1.8-3.7-1.5-5.8l2.3-14.7
					c0.4-2.8,4.8-27.8,26.4-42.8c4.6-3.2,9.8-5.8,15.6-7.8c6.7-9.9,17.4-15.6,29.8-15.6l0,0l0,0c12.4,0,23,5.5,29.5,15.3
					c6.1,2,11.6,4.7,16.5,8.1c21,14.6,25.6,38.2,26.4,42.7l2.3,14.7c0.3,2.1-0.2,4.1-1.5,5.8c-1.3,1.6-3.2,2.7-5.2,2.8l-14.8,1.3
					c-0.6,0-2.6,0.2-5.7,0.2c-4.4,0-10.7-0.3-17.6-1.7c-5.6,11.9-13.2,19.8-14.9,21.4l-10,9.8C119.9,214.6,118.1,215.4,116.1,215.4z
					 M114.5,195.4l1.7,1.8l1.8-1.8c-0.6,0.1-1.2,0.2-1.8,0.2C115.7,195.6,115.1,195.5,114.5,195.4z M103.1,145
					c1.2,0,2.5,0.3,3.6,0.9c2.7,1.5,4.2,4.5,3.8,7.5c-0.2,1.2-0.2,2.1-0.2,3c-0.1,7.6,3.2,14.6,6.3,19.6c3.2-4.8,6.7-11.8,6.8-19.3
					c0-0.9,0-1.9-0.2-3.2c-0.3-3,1.1-5.9,3.8-7.4c2.6-1.5,5.9-1.3,8.3,0.6c0.2,0.2,0.4,0.3,0.6,0.5c0.2,0.2,0.5,0.4,0.7,0.5
					c6.5,4.6,14.8,6.3,21,6.9c-2.1-4.8-5.7-10.6-11.5-14.7c-4.3-3-9.8-5.1-16.5-6.2c-3.2-0.5-5.7-3.1-6.2-6.4
					c-0.4-2.6-1.8-5.6-6.8-5.6l0,0c-5.8,0-6.9,4.4-7.1,5.7c-0.4,3.2-2.9,5.8-6.1,6.4c-6.3,1.2-11.6,3.2-15.7,6.1
					c-5.8,4-9.4,9.8-11.5,14.7c6.1-0.6,14.4-2.3,20.9-6.8c0.4-0.3,0.7-0.5,1.3-1C99.7,145.6,101.4,145,103.1,145z M58.5,167.9
					l2.9,0.3c-0.5-0.4-1-0.9-1.4-1.4s-0.8-1.1-1-1.7L58.5,167.9z M174.7,165.1c-0.3,0.6-0.6,1.2-1,1.7s-0.9,1-1.4,1.4l2.9-0.3
					L174.7,165.1z M93.6,166c1.2,0.3,2.3,0.9,3.2,1.7c-0.2-0.9-0.4-1.8-0.6-2.7C95.3,165.4,94.4,165.7,93.6,166z M137.4,165
					c-0.2,0.9-0.4,1.7-0.6,2.5c0.9-0.8,1.9-1.3,3.1-1.6C139.1,165.7,138.3,165.3,137.4,165z"/>
			</g>
		</g>
		<g>
			<g>
				<path class="st0" d="M297.9,192.1c-4,0-7.3-3.2-7.5-7.2c-0.3-7.8-0.8-15.2-1.4-21.9c-2.2-24.7-5.8-36.7-8.5-42.4
					c-2.5-5.3-4.9-10.2-6.9-14.5c-12.3-25.4-18.5-38.1-14-64.5c0.7-4.1,4.6-6.8,8.6-6.2c4.1,0.7,6.8,4.6,6.2,8.6
					c-3.6,21.6,0.8,30.8,12.7,55.4c2.1,4.3,4.5,9.2,7,14.7c4.7,10,8,25.6,9.9,47.5c0.6,7,1.1,14.6,1.4,22.6c0.2,4.1-3.1,7.6-7.2,7.8
					C298.1,192.1,298,192.1,297.9,192.1z"/>
			</g>
			<g>
				<path class="st0" d="M165.6,147.1c-0.5,0-1,0-1.5-0.2c-4.1-0.8-6.7-4.8-5.9-8.8c1.9-9.3,4.4-17.4,7.5-23.9
					c2.6-5.4,4.9-10.3,7-14.7c11.9-24.6,16.4-33.8,12.7-55.4c-0.7-4.1,2.1-8,6.2-8.6c4.1-0.7,8,2.1,8.6,6.2
					c4.4,26.4-1.7,39.1-14,64.4c-2.1,4.3-4.4,9.1-7,14.5c-2.6,5.5-4.7,12.4-6.4,20.5C172.3,144.7,169.1,147.1,165.6,147.1z"/>
			</g>
			<g>
				<path class="st0" d="M279.7,53h-99.4c-4.1,0-7.5-3.4-7.5-7.5v-38c0-4.1,3.4-7.5,7.5-7.5h99.4c4.1,0,7.5,3.4,7.5,7.5v38
					C287.2,49.6,283.8,53,279.7,53z M187.8,38h84.4V15h-84.4L187.8,38L187.8,38z"/>
			</g>
		</g>
		<g>
			<path class="st0" d="M220.8,246.5c-4.1,0-7.5-3.4-7.5-7.5v-58.3c0-4.1,3.4-7.5,7.5-7.5h197.9c4.1,0,7.5,3.4,7.5,7.5v56.8
				c0,4.1-3.4,7.5-7.5,7.5s-7.5-3.4-7.5-7.5v-49.2H228.3V239C228.3,243.1,225,246.5,220.8,246.5z"/>
		</g>
		<g>
			<g>
				<path class="st0" d="M212.4,51.1c-4.1,0-7.5-3.4-7.5-7.5V10.8c0-4.1,3.4-7.5,7.5-7.5s7.5,3.4,7.5,7.5v32.8
					C219.9,47.7,216.6,51.1,212.4,51.1z"/>
			</g>
			<g>
				<path class="st0" d="M251.2,51.1c-4.1,0-7.5-3.4-7.5-7.5V10.8c0-4.1,3.4-7.5,7.5-7.5s7.5,3.4,7.5,7.5v32.8
					C258.7,47.7,255.3,51.1,251.2,51.1z"/>
			</g>
		</g>
		<g>
			<path class="st0" d="M396.6,217.4h-61c-4.1,0-7.5-3.4-7.5-7.5s3.4-7.5,7.5-7.5h61c4.1,0,7.5,3.4,7.5,7.5S400.8,217.4,396.6,217.4
				z"/>
		</g>
		<g>
			<path class="st0" d="M231.8,162c-18.8,0-34.2-12.6-34.2-28.1s15.3-28.1,34.2-28.1c18.8,0,34.2,12.6,34.2,28.1
				S250.6,162,231.8,162z M231.8,120.8c-10.4,0-19.2,6-19.2,13.1s8.8,13.1,19.2,13.1s19.2-6,19.2-13.1S242.2,120.8,231.8,120.8z"/>
		</g>
	</g>
</g>
</svg>
