<?xml version="1.0" encoding="utf-8"?>
<!-- Generator: Adobe Illustrator 28.0.0, SVG Export Plug-In . SVG Version: 6.00 Build 0)  -->
<svg version="1.1" id="Layer_2_00000154388768596800806600000018298449506756292284_"
	 xmlns="http://www.w3.org/2000/svg" xmlns:xlink="http://www.w3.org/1999/xlink" x="0px" y="0px" viewBox="0 0 538.3 527"
	 style="enable-background:new 0 0 538.3 527;" xml:space="preserve">
<style type="text/css">
	.st0{fill:#0125A5;}
</style>
<g id="Layer_1-2">
	<g>
		<g>
			<path class="st0" d="M456.2,260.2c-4.1,0-7.5-3.4-7.5-7.5V77.5c0-5.1-4.2-9.3-9.3-9.3h-57.3c-4.1,0-7.5-3.4-7.5-7.5
				s3.4-7.5,7.5-7.5h57.3c13.4,0,24.3,10.9,24.3,24.3v175.2C463.7,256.9,460.4,260.2,456.2,260.2z"/>
		</g>
		<g>
			<path class="st0" d="M273.3,490.2h-249C10.9,490.2,0,479.3,0,465.9V77.5c0-13.4,10.9-24.3,24.3-24.3h57.3c4.1,0,7.5,3.4,7.5,7.5
				s-3.4,7.5-7.5,7.5H24.3c-5.1,0-9.3,4.2-9.3,9.3v388.4c0,5.1,4.2,9.3,9.3,9.3h249.1c4.1,0,7.5,3.4,7.5,7.5
				S277.5,490.2,273.3,490.2z"/>
		</g>
		<g>
			<path class="st0" d="M286.5,68.2H177.3c-4.1,0-7.5-3.4-7.5-7.5s3.4-7.5,7.5-7.5h109.2c4.1,0,7.5,3.4,7.5,7.5
				S290.6,68.2,286.5,68.2z"/>
		</g>
		<g>
			<g>
				<path class="st0" d="M409.3,527c-71.1,0-129-57.9-129-129s57.9-129,129-129s129,57.9,129,129S480.4,527,409.3,527z M409.3,284
					c-62.8,0-114,51.1-114,114s51.1,114,114,114s114-51.1,114-114S472.1,284,409.3,284z"/>
			</g>
			<g>
				<path class="st0" d="M410.1,407.3c-1.9,0-3.8-0.7-5.3-2.2l-51.9-51.9c-2.9-2.9-2.9-7.7,0-10.6s7.7-2.9,10.6,0l46.6,46.6l35-35
					c2.9-2.9,7.7-2.9,10.6,0s2.9,7.7,0,10.6l-40.3,40.3C413.9,406.6,412,407.3,410.1,407.3z"/>
			</g>
		</g>
		<g>
			<path class="st0" d="M456.2,195.5H7.5c-4.1,0-7.5-3.4-7.5-7.5s3.4-7.5,7.5-7.5h448.7c4.1,0,7.5,3.4,7.5,7.5
				S460.4,195.5,456.2,195.5z"/>
		</g>
		<g>
			<g>
				<path class="st0" d="M126.8,121.5c-16.2,0-29.3-13.2-29.3-29.3V29.3C97.4,13.2,110.6,0,126.8,0s29.3,13.2,29.3,29.3v62.8
					C156.1,108.3,142.9,121.5,126.8,121.5z M126.8,15c-7.9,0-14.3,6.4-14.3,14.3v62.8c0,7.9,6.4,14.3,14.3,14.3s14.3-6.4,14.3-14.3
					V29.3C141.1,21.4,134.7,15,126.8,15z"/>
			</g>
			<g>
				<path class="st0" d="M337,121.5c-16.2,0-29.3-13.2-29.3-29.3V29.3C307.6,13.2,320.8,0,337,0s29.3,13.2,29.3,29.3v62.8
					C366.3,108.3,353.1,121.5,337,121.5z M337,15c-7.9,0-14.3,6.4-14.3,14.3v62.8c0,7.9,6.4,14.3,14.3,14.3s14.3-6.4,14.3-14.3V29.3
					C351.3,21.4,344.9,15,337,15z"/>
			</g>
		</g>
	</g>
</g>
</svg>
