<?xml version="1.0" encoding="utf-8"?>
<!-- Generator: Adobe Illustrator 28.0.0, SVG Export Plug-In . SVG Version: 6.00 Build 0)  -->
<svg version="1.1" id="Layer_2_00000178205867599006451990000004271488490743161022_"
	 xmlns="http://www.w3.org/2000/svg" xmlns:xlink="http://www.w3.org/1999/xlink" x="0px" y="0px" viewBox="0 0 553.7 527"
	 style="enable-background:new 0 0 553.7 527;" xml:space="preserve">
<style type="text/css">
	.st0{fill:#FAEA13;}
</style>
<g id="Layer_1-2">
	<g>
		<g>
			<path class="st0" d="M353.8,526.9c-36.1,0-72.3-13.8-99.8-41.3c-26.6-26.6-41.3-62.1-41.3-99.8s14.7-73.1,41.3-99.8l0,0
				c55-55,144.5-55,199.5,0s55,144.5,0,199.5C426.1,513.2,390,526.9,353.8,526.9z M264.7,296.7c-23.8,23.8-36.9,55.5-36.9,89.2
				s13.1,65.3,36.9,89.2c49.2,49.2,129.2,49.2,178.3,0c49.2-49.2,49.2-129.2,0-178.3C393.8,247.6,313.8,247.6,264.7,296.7
				L264.7,296.7z M259.4,291.4L259.4,291.4L259.4,291.4z"/>
		</g>
		<g>
			<path class="st0" d="M353.8,313.3c-4.1,0-7.5-3.4-7.5-7.5V304c0-4.1,3.4-7.5,7.5-7.5s7.5,3.4,7.5,7.5v1.8
				C361.3,310,358,313.3,353.8,313.3z"/>
		</g>
		<g>
			<path class="st0" d="M353.8,475.2c-4.1,0-7.5-3.4-7.5-7.5V466c0-4.1,3.4-7.5,7.5-7.5s7.5,3.4,7.5,7.5v1.8
				C361.3,471.8,358,475.2,353.8,475.2z"/>
		</g>
		<g>
			<path class="st0" d="M273.8,393.4H272c-4.1,0-7.5-3.4-7.5-7.5s3.4-7.5,7.5-7.5h1.8c4.1,0,7.5,3.4,7.5,7.5
				S277.9,393.4,273.8,393.4z"/>
		</g>
		<g>
			<path class="st0" d="M435.6,393.4h-1.8c-4.1,0-7.5-3.4-7.5-7.5s3.4-7.5,7.5-7.5h1.8c4.1,0,7.5,3.4,7.5,7.5
				S439.8,393.4,435.6,393.4z"/>
		</g>
		<g>
			<path class="st0" d="M297.2,336.8L297.2,336.8c-2,0-3.9-0.8-5.3-2.2l-1.2-1.2c-1.4-1.4-2.2-3.3-2.2-5.3s0.8-3.9,2.2-5.3
				c1.4-1.4,3.3-2.2,5.3-2.2s3.9,0.8,5.3,2.2l1.2,1.2c1.4,1.4,2.2,3.3,2.2,5.3s-0.8,3.9-2.2,5.3C301.1,336,299.2,336.8,297.2,336.8z
				"/>
		</g>
		<g>
			<path class="st0" d="M411.7,451.3c-2,0-3.9-0.8-5.3-2.2l-1.2-1.2c-1.4-1.4-2.2-3.3-2.2-5.3s0.8-3.9,2.2-5.3
				c1.4-1.4,3.3-2.2,5.3-2.2s3.9,0.8,5.3,2.2l1.2,1.2c2.9,2.9,2.9,7.7,0,10.6C415.6,450.5,413.7,451.3,411.7,451.3z"/>
		</g>
		<g>
			<path class="st0" d="M296,451.3c-2,0-3.9-0.8-5.3-2.2c-1.4-1.4-2.2-3.3-2.2-5.3s0.8-3.9,2.2-5.3l1.2-1.2c1.4-1.4,3.3-2.2,5.3-2.2
				s3.9,0.8,5.3,2.2c2.9,2.9,3,7.7,0,10.6l-1.2,1.2C299.9,450.5,298,451.3,296,451.3z"/>
		</g>
		<g>
			<path class="st0" d="M353.8,393.4c-1.9,0-3.8-0.7-5.3-2.2c-2.9-2.9-2.9-7.7,0-10.6l56.6-56.6c2.9-2.9,7.7-2.9,10.6,0
				s2.9,7.7,0,10.6l-56.6,56.6C357.7,392.7,355.8,393.4,353.8,393.4z"/>
		</g>
		<g>
			<path class="st0" d="M353.8,259.8c-4.1,0-7.5-3.4-7.5-7.5v-28.8c0-4.1,3.4-7.5,7.5-7.5s7.5,3.4,7.5,7.5v28.8
				C361.3,256.5,358,259.8,353.8,259.8z"/>
		</g>
		<g>
			<path class="st0" d="M375.6,231.1h-43.4c-4.1,0-7.5-3.4-7.5-7.5s3.4-7.5,7.5-7.5h43.4c4.1,0,7.5,3.4,7.5,7.5
				S379.7,231.1,375.6,231.1z"/>
		</g>
		<g>
			<path class="st0" d="M201.4,469.5c-0.3,0-0.5,0-0.8,0c-36.1-3.9-120.1-16.7-120.1-50.4V267.7c-21.4-4.6-40.9-16-55.4-32.7
				C8.9,216.6,0,192.9,0,168.3c0-56,45.6-101.6,101.6-101.6c18.9,0,37.1,5.1,53,14.9c9.5-22.3,24.9-41.5,44.9-56
				C222.7,8.8,249.8,0,278.2,0c53.4,0,101.8,31.9,123,80.3c15.4-9,32.9-13.7,50.9-13.7c56,0,101.6,45.6,101.6,101.6
				c0,24.3-8.7,47.8-24.5,66.2c-15.7,18.2-37.3,30.3-60.9,34.1c-4.1,0.7-7.9-2.1-8.6-6.2s2.1-7.9,6.2-8.6
				c42.2-6.8,72.8-42.7,72.8-85.5c0-47.8-38.9-86.6-86.6-86.6c-18.1,0-35.4,5.5-50.1,16c-1.9,1.4-4.4,1.7-6.6,1s-4-2.4-4.8-4.6
				c-17-47.2-62.2-79-112.4-79c-50.9,0-96.3,32.4-112.8,80.5c-0.8,2.3-2.6,4-4.9,4.7c-2.3,0.7-4.8,0.3-6.7-1.2
				c-15.1-11.4-33.1-17.4-52.1-17.4c-47.8,0-86.6,38.9-86.6,86.6c0,42.7,31.8,79.5,74,85.7c3.7,0.5,6.4,3.7,6.4,7.4v157.6
				c0,9.9,33.1,27.5,106.8,35.5c4.1,0.4,7.1,4.1,6.6,8.3C208.4,466.7,205.1,469.5,201.4,469.5z"/>
		</g>
		<g>
			<path class="st0" d="M74,166.9c-0.8,0-1.6-0.1-2.3-0.4c-3.9-1.3-6.1-5.5-4.8-9.5c4.9-15.1,18.9-25.3,34.8-25.3
				c4.1,0,7.5,3.4,7.5,7.5s-3.4,7.5-7.5,7.5c-9.4,0-17.6,6-20.5,14.9C80.1,164.8,77.2,166.9,74,166.9z"/>
		</g>
		<g>
			<path class="st0" d="M479.5,166.2c-3.1,0-6-1.9-7.1-5c-3-8.6-11.2-14.4-20.3-14.4c-4.1,0-7.5-3.4-7.5-7.5s3.4-7.5,7.5-7.5
				c15.5,0,29.3,9.8,34.5,24.4c1.4,3.9-0.7,8.2-4.6,9.6C481.1,166,480.3,166.2,479.5,166.2z"/>
		</g>
		<g>
			<path class="st0" d="M228.6,105c-1.6,0-3.1-0.5-4.5-1.5c-3.3-2.5-4-7.2-1.5-10.5c9.6-13,23.6-22.2,39.3-26
				c5.3-1.3,10.8-1.9,16.3-1.9c4.1,0,7.5,3.4,7.5,7.5s-3.4,7.5-7.5,7.5c-4.3,0-8.6,0.5-12.8,1.5c-12.3,3-23.2,10.2-30.8,20.4
				C233.1,104,230.9,105,228.6,105z"/>
		</g>
		<g>
			<path class="st0" d="M231.2,285.5c-1.9,0-3.8-0.7-5.3-2.2c-2.9-2.9-2.9-7.7,0-10.6l14.7-14.7c2.9-2.9,7.7-2.9,10.6,0
				c2.9,2.9,2.9,7.7,0,10.6l-14.7,14.7C235,284.7,233.1,285.5,231.2,285.5z"/>
		</g>
	</g>
</g>
</svg>
