<?xml version="1.0" encoding="utf-8"?>
<!-- Generator: Adobe Illustrator 28.0.0, SVG Export Plug-In . SVG Version: 6.00 Build 0)  -->
<svg version="1.1" id="Layer_2_00000022560731171860190370000011484077923254641302_"
	 xmlns="http://www.w3.org/2000/svg" xmlns:xlink="http://www.w3.org/1999/xlink" x="0px" y="0px" viewBox="0 0 555.9 527"
	 style="enable-background:new 0 0 555.9 527;" xml:space="preserve">
<style type="text/css">
	.st0{fill:#FAEA13;}
</style>
<g id="Layer_1-2">
	<g>
		<g>
			<path class="st0" d="M432.9,527c-0.2,0-0.5,0-0.7,0c-4.1-0.4-7.2-4-6.8-8.1c4.3-47.9,29.1-81.4,53-113.8
				c13.8-18.6,28.1-37.9,38.6-60c24.6-51.8,24.2-116.8,23.8-174.1v-0.7c-0.2-27.4-1-56.7-5.7-85.6c-0.2-1.3-0.4-2.9-0.7-4.6
				c-1.4-9.3-4.5-31.1-12.5-34.7c-4.3-2-6.1-0.8-6.9-0.2c-3.1,2-10.5,10.8-13.2,47.9c-1.7,23.8-0.8,49.5-0.3,63.3
				c0.2,4.8,0.3,8,0.2,9.7c-0.1,4.1-3.5,7.4-7.7,7.3c-4.1-0.1-7.4-3.6-7.3-7.7c0-1.2-0.1-4.7-0.2-8.8c-1.9-53.5-1-110,20.1-124.1
				c4.4-2.9,11.6-5.4,21.5-0.9c15.4,7,19,31.6,21.1,46.2c0.2,1.6,0.4,3,0.6,4.3c4.9,30,5.8,61.3,5.9,87.9v0.7
				c0.4,59,0.9,125.8-25.2,180.7c-11.1,23.4-25.8,43.3-40.1,62.5c-23.8,32.1-46.2,62.5-50.2,106.2C440,524.1,436.7,527,432.9,527z"
				/>
		</g>
		<g>
			<path class="st0" d="M315,525.1c-4.1,0-7.5-3.3-7.5-7.5c-0.1-17.7-3.2-36.3-6.2-54.3c-7.7-45.7-15.6-92.9,23-133.3
				c10.1-10.5,21.9-18.7,33.3-26.6c9.9-6.8,19.2-13.3,27.5-21.1c12-11.4,21.9-25.8,31.4-39.7c4.7-6.8,9.5-13.9,14.6-20.6
				c0.7-1,1.5-2.1,2.4-3.3c10.1-13.7,28.9-39.2,49.9-31.9c7.5,2.6,16.6,10,17.2,30c0.2,8.4-1,18.4-3.8,30.3
				c-6.5,27.9-22.8,51.2-38.5,73.8c-11.7,16.8-23.9,34.3-31.5,53.1c-1.5,3.8-5.9,5.7-9.8,4.2c-3.8-1.5-5.7-5.9-4.2-9.8
				c8.2-20.4,20.9-38.5,33.1-56.1c15.6-22.4,30.4-43.5,36.2-68.6c5.7-24.4,4.3-40-3.7-42.8c-10.5-3.7-26.2,17.5-32.9,26.6
				c-0.9,1.3-1.8,2.4-2.6,3.4c-4.9,6.4-9.6,13.3-14.2,20c-10,14.6-20.3,29.6-33.4,42.1c-9.1,8.6-19.4,15.7-29.3,22.6
				c-11.3,7.8-22,15.2-31,24.6c-33.4,35-26.5,76.5-19.1,120.4c3.1,18.6,6.3,37.8,6.4,56.7C322.5,521.7,319.1,525.1,315,525.1
				L315,525.1z"/>
		</g>
		<g>
			<path class="st0" d="M277.9,279.8c-1.3,0-2.7-0.4-3.9-1.1l-3.7-2.3c-0.1-0.1-0.2-0.1-0.4-0.2c-4.3-2.7-41.1-25.5-76.7-58.7
				c-48.9-45.6-73.7-89.2-73.7-129.6C119.6,39.4,159,0,207.4,0c28,0,54.1,13.4,70.5,35.5C294.4,13.4,320.5,0,348.5,0
				c48.4,0,87.8,39.4,87.8,87.8c0,40.4-24.8,84-73.7,129.6c-36.3,33.9-73,56.5-77.1,58.9l-3.7,2.3
				C280.6,279.4,279.3,279.8,277.9,279.8z M207.4,15c-40.2,0-72.8,32.7-72.8,72.8c0,44.9,37.5,89.3,68.9,118.7
				c35.2,32.8,71.3,55.1,74.4,57c7.9-4.8,143.4-88.8,143.4-175.7c0-40.2-32.7-72.8-72.8-72.8c-26.7,0-51.2,14.6-64,38
				c-1.3,2.4-3.8,3.9-6.6,3.9s-5.3-1.5-6.6-3.9C258.6,29.6,234.1,15,207.4,15z"/>
		</g>
		<g>
			<path class="st0" d="M379.4,95.3c-4.1,0-7.5-3.4-7.5-7.5c0-12.9-10.5-23.4-23.4-23.4c-4.1,0-7.5-3.4-7.5-7.5s3.4-7.5,7.5-7.5
				c21.2,0,38.4,17.2,38.4,38.4C386.9,92,383.6,95.3,379.4,95.3z"/>
		</g>
		<g>
			<path class="st0" d="M123,527c-3.8,0-7.1-2.9-7.5-6.8c-3.9-43.7-26.4-74.1-50.2-106.2c-14.2-19.2-28.9-39.1-40.1-62.5
				c-26-54.9-25.5-121.8-25.1-180.8v-0.6c0.2-26.6,1-57.9,5.9-87.9c0.2-1.3,0.4-2.7,0.6-4.3c2.1-14.7,5.7-39.2,21.1-46.2
				c9.9-4.5,17.1-2,21.5,0.9c21.1,14.1,22,70.7,20.1,124.1c-0.1,4-0.3,7.5-0.2,8.8c0.1,4.1-3.2,7.6-7.3,7.7
				c-4.1,0.1-7.6-3.2-7.7-7.3c0-1.7,0.1-4.9,0.2-9.7c0.5-13.8,1.4-39.5-0.3-63.3c-2.6-37-10-45.8-13-47.8c-0.8-0.6-2.6-1.7-6.9,0.2
				C26.1,48.9,23,70.7,21.6,80c-0.2,1.7-0.5,3.2-0.7,4.5c-4.7,29-5.6,58.3-5.7,85.6v0.6c-0.4,57.4-0.9,122.4,23.8,174.2
				c10.5,22.1,24.8,41.4,38.6,60c24,32.4,48.7,65.9,53,113.8c0.4,4.1-2.7,7.8-6.8,8.1C123.5,527,123.2,527,123,527z"/>
		</g>
		<g>
			<path class="st0" d="M241,525.1C240.9,525.1,240.9,525.1,241,525.1c-4.2,0-7.5-3.4-7.5-7.5c0.1-18.9,3.3-38.1,6.4-56.7
				c7.4-43.9,14.3-85.5-19.1-120.4c-9-9.4-19.7-16.8-31-24.6c-9.9-6.9-20.2-14-29.3-22.6c-13.1-12.5-23.5-27.5-33.4-42.1
				c-4.6-6.7-9.3-13.6-14.2-20c-0.8-1-1.6-2.2-2.6-3.4c-6.7-9.1-22.4-30.3-32.9-26.6c-8.1,2.8-9.4,18.4-3.7,42.8
				c5.8,25,20.6,46.2,36.2,68.6c12.2,17.5,24.9,35.7,33.1,56.1c1.5,3.8-0.3,8.2-4.2,9.8c-3.8,1.5-8.2-0.3-9.8-4.2
				c-7.6-18.8-19.7-36.3-31.5-53.1c-15.7-22.6-32-45.9-38.5-73.8c-2.8-12-4-21.9-3.8-30.3c0.6-20,9.6-27.4,17.2-30
				c21-7.4,39.8,18.2,49.9,31.9c0.9,1.2,1.7,2.3,2.4,3.3c5.1,6.7,9.9,13.8,14.6,20.6c9.5,13.9,19.4,28.3,31.4,39.7
				c8.3,7.8,17.6,14.3,27.5,21.1c11.4,7.9,23.2,16.1,33.3,26.6c38.6,40.4,30.7,87.6,23,133.3c-3,18-6.1,36.6-6.2,54.3
				C248.4,521.7,245.1,525.1,241,525.1z"/>
		</g>
	</g>
</g>
</svg>
