<svg width="294" height="80" viewBox="0 0 294 80" fill="none" xmlns="http://www.w3.org/2000/svg">
<path d="M12.0206 0.520996V12.8559H9.26241V7.78357H4.32063V12.8559H1.44751V0.520996H4.32063V5.24744H9.26241V0.520996H12.0206Z" fill="white"/>
<path d="M19.8356 12.8559C18.9162 12.8559 18.1117 12.6253 17.3072 12.2795C16.5028 11.9337 15.9281 11.4725 15.3535 10.8962C14.7789 10.3198 14.4341 9.62808 14.0893 8.93641C13.7446 8.12946 13.6296 7.43778 13.6296 6.63083C13.6296 5.82388 13.7446 5.01692 14.0893 4.32525C14.549 3.5183 15.0087 2.82662 15.4684 2.25023C16.0431 1.67383 16.6177 1.21271 17.4222 0.866878C18.2266 0.521041 19.0311 0.405762 19.8356 0.405762C20.755 0.405762 21.5595 0.63632 22.3639 0.982157C23.1684 1.32799 23.743 1.78911 24.3177 2.3655C24.8923 2.9419 25.2371 3.63357 25.5818 4.32525C25.9266 5.1322 26.0415 5.82388 26.0415 6.63083C26.0415 7.43778 25.9266 8.24474 25.5818 8.93641C25.2371 9.74336 24.8923 10.3198 24.3177 10.8962C23.743 11.4725 23.1684 11.9337 22.3639 12.2795C21.5595 12.7406 20.755 12.8559 19.8356 12.8559ZM16.7326 6.63083C16.7326 7.09194 16.8475 7.55306 16.9625 8.01418C17.0774 8.47529 17.3072 8.82113 17.5371 9.16697C17.7669 9.5128 18.1117 9.74336 18.5714 9.97392C19.0311 10.2045 19.4908 10.3198 19.9505 10.3198C20.5251 10.3198 20.9848 10.2045 21.3296 9.97392C21.7893 9.74336 22.0192 9.5128 22.3639 9.16697C22.7087 8.82113 22.8236 8.36001 22.9386 8.01418C23.0535 7.55306 23.1684 7.09194 23.1684 6.63083C23.1684 6.16971 23.0535 5.7086 22.9386 5.24748C22.8236 4.78636 22.5938 4.44053 22.3639 4.09469C22.1341 3.74885 21.7893 3.5183 21.3296 3.28774C20.9848 3.05718 20.5251 2.9419 19.9505 2.9419C19.3759 2.9419 18.9162 3.05718 18.5714 3.28774C18.2266 3.5183 17.8819 3.74885 17.5371 4.09469C17.3072 4.44053 17.0774 4.78636 16.9625 5.24748C16.7326 5.7086 16.7326 6.16971 16.7326 6.63083Z" fill="white"/>
<path d="M37.4191 12.7406V5.36276L34.7758 10.7809H33.2818L30.6385 5.36276V12.7406H27.7654V0.521041H30.8684L33.9713 6.86139L37.1892 0.405762H40.2922V12.7406H37.4191Z" fill="white"/>
<path d="M51.3251 10.3197V12.8559H42.7057V0.520996H51.2101V3.05713H45.5788V5.47799H50.4057V7.78357H45.5788V10.3197H51.3251Z" fill="white"/>
<path d="M60.6339 0.520996H63.1622L67.6443 12.8559H64.7712L63.8518 10.0892H60.0592L59.1398 12.8559H56.2667L60.6339 0.520996ZM63.3921 8.12941L62.013 3.74881L60.5189 8.12941H63.3921Z" fill="white"/>
<path d="M71.6667 5.70855V12.7406H68.7936V0.520996H70.9772L76.7234 7.78357V0.520996H79.5965V12.8559H77.298L71.6667 5.70855Z" fill="white"/>
<path d="M82.0099 12.7406V0.520996H86.6069C87.6412 0.520996 88.5606 0.636275 89.2502 0.982112C90.0546 1.32795 90.6293 1.78907 91.2039 2.25018C91.6636 2.82658 92.1233 3.40297 92.3531 4.20992C92.583 5.01688 92.6979 5.82383 92.6979 6.63078C92.6979 7.55302 92.583 8.35997 92.2382 9.16692C91.8934 9.97388 91.5487 10.5503 90.974 11.1267C90.3994 11.7031 89.8248 12.0489 89.0203 12.3947C88.2158 12.7406 87.4114 12.8559 86.492 12.8559L82.0099 12.7406ZM89.8248 6.63078C89.8248 6.05439 89.7099 5.59327 89.5949 5.13216C89.48 4.67104 89.2502 4.3252 89.0203 3.97937C88.7905 3.63353 88.4457 3.40297 87.986 3.28769C87.5263 3.05713 87.1815 3.05713 86.6069 3.05713H84.883V10.3197H86.6069C87.1815 10.3197 87.6412 10.2044 87.986 10.0892C88.4457 9.8586 88.6755 9.62804 89.0203 9.2822C89.2502 8.93637 89.48 8.59053 89.5949 8.12941C89.8248 7.6683 89.8248 7.0919 89.8248 6.63078Z" fill="white"/>
<path d="M97.8696 6.51555C97.8696 5.82388 97.9846 5.01692 98.3293 4.32525C98.5592 3.63357 99.0189 2.9419 99.5935 2.3655C100.168 1.78911 100.743 1.32799 101.547 0.982157C102.352 0.63632 103.156 0.405762 104.191 0.405762C105.34 0.405762 106.374 0.63632 107.179 1.09744C107.983 1.55855 108.673 2.25023 109.017 3.05718L106.834 4.55581C106.719 4.20997 106.489 3.97941 106.259 3.74885C106.029 3.5183 105.799 3.40302 105.57 3.17246C105.34 3.05718 105.11 2.9419 104.765 2.9419C104.535 2.9419 104.191 2.82662 103.961 2.82662C103.386 2.82662 102.926 2.9419 102.582 3.17246C102.122 3.40302 101.892 3.63357 101.547 3.97941C101.317 4.32525 101.088 4.67109 100.973 5.1322C100.858 5.59332 100.743 6.05443 100.743 6.51555C100.743 6.97667 100.858 7.43778 100.973 7.8989C101.088 8.36001 101.317 8.70585 101.662 9.05169C101.892 9.39753 102.237 9.62809 102.696 9.85864C103.041 10.0892 103.501 10.2045 104.076 10.2045C104.305 10.2045 104.535 10.2045 104.88 10.0892C105.11 9.97392 105.455 9.97392 105.685 9.74336C105.914 9.62808 106.144 9.39753 106.374 9.16697C106.604 8.93641 106.719 8.70585 106.834 8.36001L109.132 9.74336C108.902 10.2045 108.673 10.5503 108.328 11.0114C107.983 11.3573 107.523 11.7031 107.064 11.9337C106.604 12.1642 106.144 12.3948 105.57 12.5101C104.995 12.6253 104.535 12.7406 103.961 12.7406C103.041 12.7406 102.237 12.5101 101.547 12.1642C100.743 11.9337 100.168 11.4725 99.5935 10.8962C99.0189 10.3198 98.6741 9.62808 98.3293 8.82113C98.0995 8.12946 97.8696 7.3225 97.8696 6.51555Z" fill="white"/>
<path d="M115.683 12.8559C114.764 12.8559 113.959 12.6253 113.155 12.2795C112.35 11.9336 111.776 11.4725 111.201 10.8961C110.626 10.3197 110.282 9.62804 109.937 8.93637C109.592 8.12941 109.477 7.43774 109.477 6.63078C109.477 5.82383 109.592 5.01688 109.937 4.3252C110.282 3.51825 110.626 2.94186 111.201 2.36546C111.776 1.78907 112.35 1.32795 113.155 0.982112C113.959 0.636275 114.764 0.520996 115.568 0.520996C116.487 0.520996 117.292 0.751554 118.096 1.09739C118.901 1.44323 119.476 1.90434 120.05 2.48074C120.625 3.05713 120.97 3.74881 121.314 4.44048C121.659 5.24744 121.774 5.93911 121.774 6.74606C121.774 7.55302 121.659 8.35997 121.314 9.05164C120.97 9.8586 120.625 10.435 120.05 11.0114C119.476 11.5878 118.901 12.0489 118.096 12.3947C117.407 12.7406 116.602 12.8559 115.683 12.8559ZM112.465 6.63078C112.465 7.0919 112.58 7.55302 112.695 8.01413C112.81 8.47525 113.04 8.82108 113.27 9.16692C113.499 9.51276 113.844 9.74332 114.304 9.97388C114.764 10.2044 115.223 10.3197 115.683 10.3197C116.258 10.3197 116.717 10.2044 117.062 9.97388C117.522 9.74332 117.752 9.51276 118.096 9.16692C118.326 8.82108 118.556 8.35997 118.671 8.01413C118.786 7.55302 118.901 7.0919 118.901 6.63078C118.901 6.16967 118.786 5.70855 118.671 5.24744C118.556 4.78632 118.326 4.44048 118.096 4.09465C117.867 3.74881 117.522 3.51825 117.062 3.28769C116.717 3.05713 116.258 2.94186 115.683 2.94186C115.108 2.94186 114.649 3.05713 114.304 3.28769C113.959 3.51825 113.614 3.74881 113.27 4.09465C113.04 4.44048 112.81 4.78632 112.695 5.24744C112.58 5.70855 112.465 6.16967 112.465 6.63078Z" fill="white"/>
<path d="M133.266 12.7406V5.36271L130.623 10.7808H129.129L126.486 5.36271V12.7406H123.613V0.520996H126.716L129.934 6.97662L133.152 0.520996H136.255V12.8559H133.266V12.7406Z" fill="white"/>
<path d="M148.207 12.7406V5.36271L145.563 10.7808H144.069L141.426 5.36271V12.7406H138.553V0.520996H141.656L144.874 6.97662L148.092 0.520996H151.195V12.8559H148.207V12.7406Z" fill="white"/>
<path d="M158.895 10.3197C159.355 10.3197 159.814 10.2044 160.159 9.97388C160.504 9.74332 160.734 9.51276 160.963 9.16692C161.193 8.82109 161.308 8.47525 161.423 8.01413C161.538 7.55302 161.538 7.0919 161.538 6.63078V0.520996H164.411V6.86134C164.411 7.6683 164.296 8.47525 164.066 9.2822C163.837 9.97388 163.492 10.6656 163.032 11.2419C162.572 11.8183 161.998 12.2795 161.308 12.51C160.619 12.8559 159.814 12.9711 158.895 12.9711C157.86 12.9711 157.056 12.8559 156.366 12.51C155.677 12.1642 155.102 11.7031 154.643 11.1267C154.183 10.5503 153.838 9.8586 153.723 9.16692C153.493 8.47525 153.378 7.6683 153.378 6.86134V0.520996H156.252V6.86134C156.252 7.32246 156.252 7.78357 156.366 8.24469C156.481 8.70581 156.596 9.05164 156.826 9.39748C157.056 9.74332 157.286 9.97388 157.631 10.2044C157.975 10.3197 158.32 10.3197 158.895 10.3197Z" fill="white"/>
<path d="M169.468 5.70855V12.7406H166.595V0.520996H168.778L174.525 7.78357V0.520996H177.398V12.8559H175.099L169.468 5.70855Z" fill="white"/>
<path d="M179.811 12.7406V0.520996H182.684V12.8559L179.811 12.7406Z" fill="white"/>
<path d="M194.177 2.94186H190.384V12.7406H187.511V2.94186H183.719V0.520996H194.062V2.94186H194.177Z" fill="white"/>
<path d="M197.854 0.520996L200.498 6.16967L203.141 0.520996H206.244L201.877 8.59053V12.7406H199.004V8.59053L194.751 0.520996H197.854Z" fill="white"/>
<path d="M210.956 6.51555C210.956 5.82388 211.071 5.01692 211.416 4.32525C211.645 3.63357 212.105 2.9419 212.68 2.3655C213.254 1.78911 213.829 1.32799 214.633 0.982157C215.438 0.63632 216.242 0.405762 217.277 0.405762C218.426 0.405762 219.46 0.63632 220.265 1.09744C221.069 1.55855 221.759 2.25023 222.104 3.05718L219.92 4.55581C219.805 4.20997 219.575 3.97941 219.345 3.74885C219.115 3.5183 218.886 3.40302 218.656 3.17246C218.426 3.05718 218.196 2.9419 217.851 2.9419C217.621 2.9419 217.277 2.82662 217.047 2.82662C216.472 2.82662 216.013 2.9419 215.668 3.17246C215.208 3.40302 214.978 3.63357 214.633 3.97941C214.404 4.32525 214.174 4.67109 214.059 5.1322C213.944 5.59332 213.829 6.05443 213.829 6.51555C213.829 6.97667 213.944 7.43778 214.059 7.8989C214.174 8.36001 214.404 8.70585 214.748 9.05169C214.978 9.39753 215.323 9.62809 215.783 9.85864C216.127 10.0892 216.587 10.2045 217.162 10.2045C217.392 10.2045 217.621 10.2045 217.966 10.0892C218.196 9.97392 218.541 9.97392 218.771 9.74336C219.001 9.62808 219.23 9.39753 219.46 9.16697C219.69 8.93641 219.805 8.70585 219.92 8.36001L222.218 9.74336C221.989 10.2045 221.759 10.5503 221.414 11.0114C221.069 11.3573 220.61 11.7031 220.15 11.9337C219.69 12.1642 219.23 12.3948 218.656 12.5101C218.081 12.6253 217.621 12.7406 217.047 12.7406C216.127 12.7406 215.323 12.5101 214.633 12.1642C213.944 11.8184 213.254 11.3573 212.68 10.6656C212.105 10.0892 211.76 9.39753 211.416 8.59057C211.071 8.12946 210.956 7.3225 210.956 6.51555Z" fill="white"/>
<path d="M226.815 0.520996H229.344L233.826 12.8559H230.953L230.033 10.0892H226.241L225.321 12.8559H222.448L226.815 0.520996ZM229.574 8.12941L228.08 3.74881L226.586 8.12941H229.574Z" fill="white"/>
<path d="M234.975 12.7406V0.520996H240.492C241.066 0.520996 241.641 0.636275 242.101 0.866833C242.56 1.09739 243.02 1.44323 243.365 1.78907C243.71 2.1349 244.054 2.59602 244.169 3.17241C244.399 3.63353 244.514 4.20992 244.514 4.67104C244.514 5.01688 244.514 5.47799 244.399 5.82383C244.284 6.16967 244.169 6.5155 244.054 6.86134C243.824 7.20718 243.71 7.43774 243.48 7.66829C243.25 7.89885 242.905 8.12941 242.675 8.24469L245.318 12.8559H242.101L239.802 8.93637H237.963V12.8559L234.975 12.7406ZM237.848 6.28495H240.492C240.836 6.28495 241.066 6.16967 241.411 5.82383C241.641 5.47799 241.756 5.13216 241.756 4.55576C241.756 4.09465 241.641 3.63353 241.296 3.28769C241.066 2.94186 240.721 2.82658 240.377 2.82658H237.848V6.28495Z" fill="white"/>
<path d="M255.202 10.3197V12.8559H246.583V0.520996H255.087V3.05713H249.456V5.47799H254.283V7.78357H249.456V10.3197H255.202Z" fill="white"/>
<path d="M8.91767 23.0003C8.91767 23.0003 8.80274 22.885 8.57289 22.7697C8.34304 22.6544 8.11319 22.5391 7.76842 22.4239C7.42364 22.3086 7.07887 22.1933 6.73409 22.078C6.38932 21.8475 5.92962 21.8475 5.58484 21.8475C4.55052 21.8475 4.09082 22.1933 4.09082 22.885C4.09082 23.1155 4.09082 23.2308 4.20574 23.4614C4.32067 23.5766 4.43559 23.6919 4.66544 23.8072C4.89529 23.9225 5.12514 24.0378 5.46992 24.153C5.81469 24.2683 6.15947 24.3836 6.61917 24.4989C7.19379 24.6142 7.76842 24.8447 8.22812 25.0753C8.68782 25.3058 9.14752 25.5364 9.37737 25.7669C9.72214 25.9975 9.95199 26.3433 10.1818 26.8045C10.4117 27.2656 10.4117 27.7267 10.4117 28.3031C10.4117 28.9948 10.2968 29.5712 10.0669 30.0323C9.83707 30.4934 9.49229 30.9545 9.03259 31.1851C8.57289 31.4156 8.11319 31.6462 7.53857 31.8767C6.96394 31.992 6.38932 32.1073 5.81469 32.1073C5.35499 32.1073 4.89529 32.1073 4.43559 31.992C3.97589 31.8767 3.51619 31.6462 3.05649 31.4156C2.59679 31.3003 2.13709 31.0698 1.79232 30.9545C1.33262 30.7239 0.987841 30.6087 0.643066 30.2628L1.90724 27.842C1.90724 27.9573 2.13709 27.9572 2.36694 28.1878C2.59679 28.3031 2.94157 28.5336 3.28634 28.6489C3.63112 28.7642 4.09082 28.9948 4.55052 29.11C5.01022 29.2253 5.46992 29.3406 5.92962 29.3406C6.96394 29.3406 7.42364 28.9948 7.42364 28.4184C7.42364 28.1878 7.30872 27.9573 7.19379 27.842C7.07887 27.7267 6.84902 27.6114 6.61917 27.3809C6.38932 27.2656 6.04454 27.1503 5.69977 27.035C5.35499 26.9197 4.89529 26.8045 4.55052 26.6892C3.97589 26.4586 3.51619 26.3433 3.05649 26.1128C2.59679 25.8822 2.25202 25.6517 2.02217 25.4211C1.79232 25.1906 1.56247 24.8447 1.44754 24.4989C1.33262 24.153 1.21769 23.6919 1.21769 23.2308C1.21769 22.5391 1.33262 21.9627 1.56247 21.5016C1.79232 21.0405 2.13709 20.5794 2.59679 20.2336C3.05649 19.8877 3.51619 19.6572 4.09082 19.4266C4.66544 19.196 5.24007 19.196 5.81469 19.196C6.27439 19.196 6.61917 19.196 7.07887 19.3113C7.53857 19.4266 7.88334 19.5419 8.22812 19.6572C8.57289 19.7724 8.91767 19.8877 9.26244 20.1183C9.60722 20.2336 9.83707 20.4641 10.1818 20.5794L8.91767 23.0003Z" fill="white"/>
<path d="M17.422 29.3408C17.8817 29.3408 18.3414 29.2255 18.6862 28.995C19.031 28.7644 19.2608 28.5338 19.4907 28.188C19.7205 27.8422 19.8355 27.4963 19.9504 27.0352C20.0653 26.5741 20.0653 26.113 20.0653 25.6519V19.3115H22.9384V25.6519C22.9384 26.4588 22.8235 27.2658 22.5937 28.0727C22.3638 28.7644 22.019 29.4561 21.5593 30.0325C21.0996 30.6089 20.525 31.07 19.8355 31.3005C19.1459 31.5311 18.3414 31.7617 17.422 31.7617C16.3877 31.7617 15.5832 31.6464 14.8937 31.3005C14.2041 30.9547 13.6295 30.4936 13.1698 29.9172C12.7101 29.3408 12.3653 28.6491 12.2504 27.9575C12.0206 27.2658 11.9056 26.4588 11.9056 25.6519V19.3115H14.7788V25.6519C14.7788 26.113 14.7788 26.5741 14.8937 27.0352C15.0086 27.4963 15.1235 27.8422 15.3534 28.188C15.5832 28.5338 15.8131 28.7644 16.1579 28.995C16.5026 29.2255 16.9623 29.3408 17.422 29.3408Z" fill="white"/>
<path d="M25.1221 31.7616V19.4268H30.4086C30.9832 19.4268 31.5579 19.542 32.0176 19.7726C32.4773 20.0032 32.937 20.349 33.2817 20.6948C33.6265 21.0407 33.8564 21.5018 34.0862 22.0782C34.3161 22.5393 34.431 23.1157 34.431 23.5768C34.431 24.1532 34.3161 24.6143 34.2011 25.1907C33.9713 25.6518 33.7414 26.1129 33.3967 26.5741C33.0519 26.9199 32.5922 27.2657 32.1325 27.4963C31.6728 27.7268 31.0982 27.8421 30.5235 27.8421H27.9952V31.7616H25.1221ZM27.9952 25.306H30.2937C30.6385 25.306 30.8683 25.1907 31.2131 24.8449C31.4429 24.499 31.5579 24.1532 31.5579 23.5768C31.5579 23.231 31.5579 23.0004 31.4429 22.8851C31.328 22.6546 31.2131 22.5393 31.0982 22.3087C30.9832 22.1935 30.8683 22.0782 30.6385 21.9629C30.5235 21.8476 30.2937 21.8476 30.1788 21.8476H27.9952V25.306Z" fill="white"/>
<path d="M35.8102 31.7616V19.4268H41.0967C41.6714 19.4268 42.246 19.542 42.7057 19.7726C43.1654 20.0032 43.6251 20.349 43.9699 20.6948C44.3146 21.0407 44.5445 21.5018 44.7743 22.0782C45.0042 22.5393 45.1191 23.1157 45.1191 23.5768C45.1191 24.1532 45.0042 24.6143 44.8893 25.1907C44.6594 25.6518 44.4296 26.1129 44.0848 26.5741C43.74 26.9199 43.2803 27.2657 42.8206 27.4963C42.3609 27.7268 41.7863 27.8421 41.2117 27.8421H38.6833V31.7616H35.8102ZM38.6833 25.306H40.9818C41.3266 25.306 41.5564 25.1907 41.9012 24.8449C42.1311 24.499 42.246 24.1532 42.246 23.5768C42.246 23.231 42.246 23.0004 42.1311 22.8851C42.0161 22.6546 41.9012 22.5393 41.7863 22.3087C41.6714 22.1935 41.5564 22.0782 41.3266 21.9629C41.2117 21.8476 40.9818 21.8476 40.8669 21.8476H38.6833V25.306Z" fill="white"/>
<path d="M52.0145 31.8768C51.0951 31.8768 50.2907 31.6463 49.4862 31.3005C48.6817 30.9546 48.1071 30.4935 47.5325 29.9171C46.9578 29.3407 46.6131 28.649 46.2683 27.9574C45.9235 27.1504 45.8086 26.4587 45.8086 25.6518C45.8086 24.8448 45.9235 24.0379 46.2683 23.3462C46.6131 22.5392 46.9578 21.9629 47.5325 21.3865C48.1071 20.8101 48.6817 20.3489 49.4862 20.0031C50.2907 19.6573 51.0951 19.542 51.8996 19.542C52.819 19.542 53.6235 19.7726 54.428 20.1184C55.2324 20.4642 55.8071 20.9253 56.3817 21.5017C56.9563 22.0781 57.3011 22.7698 57.6459 23.4615C57.9906 24.2684 58.1056 24.9601 58.1056 25.7671C58.1056 26.574 57.9906 27.381 57.6459 28.0726C57.3011 28.7643 56.9563 29.456 56.3817 30.0324C55.8071 30.6088 55.2324 31.0699 54.428 31.4157C53.7384 31.6463 52.9339 31.8768 52.0145 31.8768ZM48.7966 25.5365C48.7966 25.9976 48.9116 26.4587 49.0265 26.9198C49.1414 27.381 49.3713 27.7268 49.6011 28.0726C49.831 28.4185 50.1757 28.649 50.6354 28.8796C51.0951 29.1102 51.5548 29.2254 52.0145 29.2254C52.5892 29.2254 53.0489 29.1102 53.3936 28.8796C53.8533 28.649 54.0832 28.4185 54.428 28.0726C54.6578 27.7268 54.8877 27.2657 55.0026 26.9198C55.1175 26.4587 55.2324 25.9976 55.2324 25.5365C55.2324 25.0754 55.1175 24.6143 55.0026 24.1532C54.8877 23.692 54.6578 23.3462 54.428 23.0004C54.1981 22.6545 53.8533 22.424 53.3936 22.1934C53.0489 21.9629 52.5892 21.8476 52.0145 21.8476C51.4399 21.8476 50.9802 21.9629 50.6354 22.1934C50.2907 22.424 49.9459 22.6545 49.6011 23.0004C49.3713 23.3462 49.1414 23.692 49.0265 24.1532C48.9116 24.6143 48.7966 25.0754 48.7966 25.5365Z" fill="white"/>
<path d="M59.9443 31.7616V19.4268H65.4607C66.0354 19.4268 66.61 19.542 67.0697 19.7726C67.5294 20.0032 67.9891 20.349 68.3339 20.6948C68.6786 21.0407 69.0234 21.5018 69.1383 22.0782C69.3682 22.5393 69.4831 23.1157 69.4831 23.5768C69.4831 23.9226 69.4831 24.2685 69.3682 24.7296C69.2533 25.0754 69.1383 25.4213 69.0234 25.7671C68.7936 26.1129 68.6786 26.3435 68.4488 26.5741C68.2189 26.8046 67.8742 27.0352 67.6443 27.2657L70.2876 31.8769H67.0697L64.7712 27.9574H62.9324V31.8769L59.9443 31.7616ZM62.7025 25.306H65.3458C65.6906 25.306 65.9204 25.1907 66.2652 24.8449C66.4951 24.499 66.61 24.1532 66.61 23.5768C66.61 23.1157 66.4951 22.6546 66.1503 22.3087C65.9204 21.9629 65.5757 21.8476 65.2309 21.8476H62.7025V25.306Z" fill="white"/>
<path d="M80.6308 21.9629H76.8383V31.7616H73.9651V21.9629H70.1726V19.4268H80.5159V21.9629H80.6308Z" fill="white"/>
<path d="M93.6174 23.0005C93.6174 23.0005 93.5025 22.8852 93.2727 22.7699C93.0428 22.6546 92.813 22.5393 92.4682 22.4241C92.1234 22.3088 91.7786 22.1935 91.4339 22.0782C91.0891 21.8477 90.7443 21.8477 90.3995 21.8477C89.3652 21.8477 88.9055 22.1935 88.9055 22.8852C88.9055 23.1157 88.9055 23.231 89.0204 23.4616C89.1354 23.5768 89.2503 23.6921 89.4801 23.8074C89.71 23.9227 89.9398 24.038 90.2846 24.1532C90.6294 24.2685 90.9742 24.3838 91.4339 24.4991C92.0085 24.6144 92.5831 24.8449 93.0428 25.0755C93.5025 25.306 93.9622 25.5366 94.1921 25.7672C94.4219 25.9977 94.7667 26.3435 94.9965 26.8047C95.2264 27.2658 95.2264 27.7269 95.2264 28.3033C95.2264 28.995 95.1115 29.5714 94.8816 30.0325C94.6518 30.4936 94.307 30.9547 93.8473 31.1853C93.3876 31.5311 92.9279 31.6464 92.3533 31.8769C91.7786 31.9922 91.204 32.1075 90.6294 32.1075C90.1697 32.1075 89.71 32.1075 89.2503 31.9922C88.7906 31.8769 88.3309 31.8769 87.8712 31.6464C87.4115 31.5311 86.9518 31.3005 86.607 31.1853C86.1473 30.9547 85.8025 30.8394 85.4578 30.4936L86.7219 27.9575C86.7219 28.0727 86.9518 28.0727 87.1816 28.3033C87.4115 28.4186 87.7563 28.6491 88.101 28.7644C88.4458 28.8797 88.9055 29.1102 89.3652 29.2255C89.8249 29.3408 90.2846 29.4561 90.7443 29.4561C91.7786 29.4561 92.2383 29.1102 92.2383 28.5338C92.2383 28.3033 92.1234 28.0727 92.0085 27.9575C91.8936 27.8422 91.6637 27.7269 91.4339 27.4963C91.204 27.3811 90.8592 27.2658 90.5145 27.1505C90.1697 27.0352 89.71 26.9199 89.3652 26.8047C88.7906 26.5741 88.3309 26.4588 87.8712 26.2283C87.4115 25.9977 87.0667 25.7672 86.8369 25.5366C86.607 25.306 86.3772 24.9602 86.2622 24.6144C86.1473 24.2685 86.0324 23.8074 86.0324 23.3463C86.0324 22.6546 86.1473 22.0782 86.3772 21.6171C86.607 21.156 86.9518 20.6949 87.4115 20.349C87.8712 20.0032 88.3309 19.7726 88.9055 19.5421C89.4801 19.3115 90.0548 19.3115 90.6294 19.3115C91.0891 19.3115 91.4339 19.3115 91.8936 19.4268C92.3533 19.5421 92.698 19.6574 93.0428 19.7726C93.3876 19.8879 93.7324 20.0032 94.0771 20.2338C94.4219 20.349 94.6518 20.5796 94.9965 20.6949L93.6174 23.0005Z" fill="white"/>
<path d="M105.684 29.2255V31.7616H97.0651V19.4268H105.57V21.9629H99.9382V24.3838H104.765V26.6893H99.9382V29.3408H105.684V29.2255Z" fill="white"/>
<path d="M107.638 31.7616V19.4268H113.155C113.729 19.4268 114.304 19.542 114.764 19.7726C115.223 20.0032 115.683 20.349 116.028 20.6948C116.372 21.0407 116.717 21.5018 116.832 22.0782C117.062 22.5393 117.177 23.1157 117.177 23.5768C117.177 23.9226 117.177 24.2685 117.062 24.7296C116.947 25.0754 116.832 25.4213 116.717 25.7671C116.487 26.1129 116.372 26.3435 116.143 26.5741C115.913 26.8046 115.568 27.0352 115.338 27.2657L117.981 31.8769H114.764L112.465 27.9574H110.626V31.8769L107.638 31.7616ZM110.511 25.306H113.155C113.499 25.306 113.729 25.1907 114.074 24.8449C114.304 24.499 114.419 24.1532 114.419 23.5768C114.419 23.1157 114.304 22.6546 113.959 22.3087C113.729 21.9629 113.384 21.8476 113.04 21.8476H110.511V25.306Z" fill="white"/>
<path d="M120.51 19.4268L123.383 28.188L126.256 19.4268H129.244L124.532 31.7616H122.119L117.407 19.4268H120.51Z" fill="white"/>
<path d="M130.393 31.7616V19.4268H133.267V31.7616H130.393Z" fill="white"/>
<path d="M134.99 25.4213C134.99 24.7296 135.105 23.9227 135.45 23.231C135.68 22.5393 136.14 21.8477 136.714 21.2713C137.289 20.6949 137.863 20.2338 138.668 19.8879C139.472 19.5421 140.277 19.3115 141.311 19.3115C142.46 19.3115 143.495 19.5421 144.299 20.0032C145.104 20.4643 145.793 21.156 146.138 21.9629L143.955 23.4616C143.84 23.1157 143.61 22.8852 143.38 22.6546C143.15 22.4241 142.92 22.3088 142.69 22.0782C142.46 21.9629 142.231 21.8477 141.886 21.8477C141.656 21.8477 141.311 21.7324 141.081 21.7324C140.507 21.7324 140.047 21.8477 139.702 22.0782C139.243 22.3088 139.013 22.5393 138.668 22.8852C138.438 23.231 138.208 23.5768 138.093 24.038C137.978 24.4991 137.863 24.9602 137.863 25.4213C137.863 25.8824 137.978 26.3435 138.093 26.8047C138.208 27.2658 138.438 27.6116 138.783 27.9575C139.013 28.3033 139.358 28.5338 139.817 28.7644C140.162 28.995 140.622 29.1102 141.196 29.1102C141.426 29.1102 141.656 29.1102 142.001 28.995C142.231 28.8797 142.575 28.8797 142.805 28.6491C143.035 28.5338 143.265 28.3033 143.495 28.0727C143.725 27.8422 143.84 27.6116 143.955 27.2658L146.253 28.6491C146.023 29.1102 145.793 29.4561 145.449 29.9172C145.104 30.263 144.644 30.6089 144.184 30.8394C143.725 31.07 143.265 31.3005 142.69 31.4158C142.116 31.5311 141.656 31.6464 141.081 31.6464C140.162 31.6464 139.358 31.4158 138.668 31.07C137.978 30.7241 137.289 30.263 136.714 29.5714C136.14 28.995 135.795 28.3033 135.45 27.4963C135.105 27.0352 134.99 26.2283 134.99 25.4213Z" fill="white"/>
<path d="M156.251 29.2255V31.7616H147.632V19.4268H156.137V21.9629H150.505V24.3838H155.332V26.6893H150.505V29.3408H156.251V29.2255Z" fill="white"/>
<path d="M165.445 23.0004C165.445 23.0004 165.331 22.8851 165.101 22.7698C164.871 22.6546 164.641 22.5393 164.296 22.424C163.951 22.3087 163.607 22.1935 163.262 22.0782C162.917 21.9629 162.572 21.9629 162.113 21.9629C161.078 21.9629 160.619 22.3087 160.619 23.0004C160.619 23.231 160.619 23.3462 160.734 23.5768C160.848 23.8074 160.963 23.8074 161.193 23.9226C161.423 24.0379 161.653 24.1532 161.998 24.2685C162.343 24.3838 162.687 24.499 163.147 24.6143C163.722 24.7296 164.296 24.9602 164.756 25.1907C165.216 25.4213 165.675 25.6518 165.905 25.8824C166.135 26.1129 166.48 26.4588 166.71 26.9199C166.94 27.381 166.94 27.8421 166.94 28.4185C166.94 29.1102 166.825 29.6866 166.595 30.1477C166.365 30.6088 166.02 31.0699 165.56 31.3005C165.101 31.5311 164.641 31.7616 164.066 31.9922C163.492 32.1075 162.917 32.2227 162.343 32.2227C161.883 32.2227 161.423 32.2227 160.963 32.1075C160.504 31.9922 160.044 31.9922 159.584 31.7616C159.125 31.6463 158.665 31.4158 158.32 31.3005C157.86 31.0699 157.516 30.9547 157.171 30.6088L158.435 28.0727C158.435 28.188 158.665 28.188 158.895 28.4185C159.125 28.5338 159.469 28.7644 159.814 28.8796C160.159 28.9949 160.619 29.2255 161.078 29.3408C161.538 29.456 161.998 29.5713 162.457 29.5713C163.492 29.5713 163.951 29.2255 163.951 28.6491C163.951 28.4185 163.837 28.188 163.722 28.0727C163.607 27.9574 163.377 27.8421 163.147 27.6116C162.917 27.4963 162.572 27.381 162.228 27.2657C161.883 27.1505 161.423 27.0352 161.078 26.9199C160.504 26.6893 160.044 26.5741 159.584 26.3435C159.125 26.1129 158.78 25.8824 158.55 25.6518C158.32 25.4213 158.09 25.0754 157.975 24.7296C157.86 24.3838 157.746 23.9226 157.746 23.4615C157.746 22.7699 157.86 22.1935 158.09 21.7323C158.32 21.2712 158.665 20.8101 159.125 20.4643C159.584 20.1184 160.044 19.8879 160.619 19.6573C161.193 19.4268 161.768 19.4268 162.343 19.4268C162.802 19.4268 163.147 19.4268 163.607 19.542C164.066 19.6573 164.411 19.7726 164.756 19.8879C165.101 20.0032 165.445 20.1184 165.79 20.349C166.135 20.4643 166.48 20.6948 166.71 20.8101L165.445 23.0004Z" fill="white"/>
<path d="M8.91767 51.8122C8.91767 51.8122 8.80274 51.6969 8.57289 51.5816C8.34304 51.4663 8.11319 51.3511 7.76842 51.2358C7.42364 51.1205 7.07887 51.0052 6.73409 50.8899C6.38932 50.7747 6.04454 50.7747 5.58484 50.7747C4.55052 50.7747 4.09082 51.1205 4.09082 51.8122C4.09082 52.0427 4.09082 52.158 4.20574 52.3886C4.32067 52.5039 4.43559 52.6191 4.66544 52.7344C4.89529 52.8497 5.12514 52.965 5.46992 53.0802C5.81469 53.1955 6.15947 53.3108 6.61917 53.4261C7.19379 53.5414 7.76842 53.7719 8.22812 54.0025C8.68782 54.233 9.14752 54.4636 9.37737 54.6942C9.60722 54.9247 9.95199 55.2705 10.1818 55.7317C10.4117 56.1928 10.4117 56.6539 10.4117 57.2303C10.4117 57.922 10.2968 58.4984 10.0669 58.9595C9.83707 59.4206 9.49229 59.8817 9.03259 60.1123C8.57289 60.4581 8.11319 60.5734 7.53857 60.8039C6.96394 60.9192 6.38932 61.0345 5.81469 61.0345C5.35499 61.0345 4.89529 61.0345 4.43559 60.9192C3.97589 60.8039 3.51619 60.8039 3.05649 60.5734C2.59679 60.4581 2.13709 60.2275 1.79232 60.1123C1.33262 59.8817 0.987841 59.7664 0.643066 59.4206L1.90724 56.8845C1.90724 56.9997 2.13709 56.9997 2.36694 57.2303C2.59679 57.3456 2.94157 57.5761 3.28634 57.6914C3.63112 57.8067 4.09082 58.0372 4.55052 58.1525C5.01022 58.2678 5.46992 58.3831 5.92962 58.3831C6.96394 58.3831 7.42364 58.0372 7.42364 57.4608C7.42364 57.2303 7.30872 56.9997 7.19379 56.8845C7.07887 56.7692 6.84902 56.6539 6.61917 56.4233C6.38932 56.3081 6.04454 56.1928 5.69977 56.0775C5.35499 55.9622 4.89529 55.8469 4.55052 55.7317C3.97589 55.5011 3.51619 55.3858 3.05649 55.1553C2.59679 54.9247 2.25202 54.6942 2.02217 54.4636C1.79232 54.233 1.56247 53.8872 1.44754 53.5414C1.33262 53.1955 1.21769 52.7344 1.21769 52.2733C1.21769 51.5816 1.33262 51.0052 1.56247 50.5441C1.79232 50.083 2.13709 49.6219 2.59679 49.276C3.05649 48.9302 3.51619 48.6996 4.09082 48.4691C4.66544 48.2385 5.24007 48.2385 5.81469 48.2385C6.27439 48.2385 6.61917 48.2385 7.07887 48.3538C7.53857 48.4691 7.88334 48.5844 8.22812 48.6996C8.57289 48.8149 8.91767 48.9302 9.26244 49.1608C9.60722 49.276 9.83707 49.5066 10.1818 49.6219L8.91767 51.8122Z" fill="white"/>
<path d="M20.9847 58.0372V60.5734H12.3654V48.2385H20.8698V50.7747H15.2385V53.1955H20.0653V55.5011H15.2385V58.1525H20.9847V58.0372Z" fill="white"/>
<path d="M22.9385 60.5734V48.2385H28.4549C29.0295 48.2385 29.6041 48.3538 30.0638 48.5844C30.5235 48.8149 30.9832 49.1608 31.328 49.5066C31.6728 49.8524 32.0176 50.3136 32.1325 50.8899C32.3623 51.3511 32.4773 51.9275 32.4773 52.3886C32.4773 52.7344 32.4773 53.1955 32.3623 53.5414C32.2474 53.8872 32.1325 54.233 32.0176 54.5789C31.7877 54.9247 31.6728 55.1553 31.4429 55.3858C31.2131 55.6164 30.8683 55.8469 30.6385 55.9622L33.2817 60.5734H30.0638L27.7653 56.6539H25.9265V60.5734H22.9385ZM25.8116 54.1178H28.4549C28.7997 54.1178 29.0295 54.0025 29.3743 53.6566C29.6041 53.3108 29.7191 52.965 29.7191 52.3886C29.7191 51.9275 29.6041 51.4663 29.2594 51.1205C28.9146 50.7747 28.6847 50.6594 28.34 50.6594H25.8116V54.1178Z" fill="white"/>
<path d="M35.8101 48.2385L38.6833 56.9997L41.5564 48.2385H44.5444L39.8325 60.5734H37.4191L32.7072 48.2385H35.8101Z" fill="white"/>
<path d="M45.6936 60.5734V48.2385H48.5667V60.5734H45.6936Z" fill="white"/>
<path d="M50.2906 54.3483C50.2906 53.6566 50.4056 52.8497 50.7504 52.158C50.9802 51.4663 51.4399 50.7747 52.0145 50.1983C52.5891 49.6219 53.1638 49.1608 53.9683 48.8149C54.7727 48.4691 55.5772 48.2385 56.6115 48.2385C57.7608 48.2385 58.7951 48.4691 59.5996 48.9302C60.4041 49.3913 61.0936 50.083 61.4384 50.8899L59.1399 52.3886C59.025 52.0427 58.7951 51.8122 58.5653 51.5816C58.3354 51.3511 58.1056 51.2358 57.8757 51.0052C57.6459 50.8899 57.416 50.7747 57.0712 50.7747C56.8414 50.7747 56.4966 50.6594 56.2668 50.6594C55.6921 50.6594 55.2324 50.7747 54.8877 51.0052C54.4279 51.2358 54.1981 51.4663 53.8533 51.8122C53.6235 52.158 53.3936 52.5039 53.2787 52.965C53.1638 53.4261 53.0489 53.8872 53.0489 54.3483C53.0489 54.8094 53.1638 55.2705 53.2787 55.7317C53.3936 56.1928 53.6235 56.5386 53.9683 56.8845C54.1981 57.2303 54.5429 57.4608 55.0026 57.6914C55.3474 57.922 55.8071 58.0372 56.3817 58.0372C56.6115 58.0372 56.8414 58.0372 57.1862 57.922C57.416 57.8067 57.7608 57.8067 57.9906 57.5761C58.2205 57.4609 58.4503 57.2303 58.6802 56.9997C58.91 56.7692 59.025 56.5386 59.1399 56.1928L61.4384 57.5761C61.2085 58.0372 60.9787 58.3831 60.6339 58.8442C60.2891 59.19 59.8294 59.5359 59.3697 59.7664C58.91 59.997 58.4503 60.2275 57.8757 60.3428C57.3011 60.4581 56.8414 60.5734 56.2668 60.5734C55.3474 60.5734 54.5429 60.3428 53.8533 59.997C53.1638 59.6512 52.4742 59.19 51.8996 58.4984C51.325 57.922 50.9802 57.2303 50.6354 56.4233C50.4056 55.8469 50.2906 55.04 50.2906 54.3483Z" fill="white"/>
<path d="M71.5517 58.0372V60.5734H62.9324V48.2385H71.4368V50.7747H65.8055V53.1955H70.6323V55.5011H65.8055V58.1525H71.5517V58.0372Z" fill="white"/>
<path d="M80.8607 51.8122C80.8607 51.8122 80.7457 51.6969 80.5159 51.5816C80.286 51.4663 80.0562 51.3511 79.7114 51.2358C79.3666 51.1205 79.0219 51.0052 78.6771 50.8899C78.3323 50.7747 77.9875 50.7747 77.5278 50.7747C76.4935 50.7747 76.0338 51.1205 76.0338 51.8122C76.0338 52.0427 76.0338 52.158 76.1487 52.3886C76.2637 52.5039 76.3786 52.6191 76.6084 52.7344C76.8383 52.8497 77.0681 52.965 77.4129 53.0802C77.7577 53.1955 78.1025 53.3108 78.5622 53.4261C79.1368 53.5414 79.7114 53.7719 80.1711 54.0025C80.6308 54.233 81.0905 54.4636 81.3204 54.6942C81.6651 54.9247 81.895 55.2705 82.1248 55.7317C82.3547 56.1928 82.3547 56.6539 82.3547 57.2303C82.3547 57.922 82.2398 58.4984 82.0099 58.9595C81.7801 59.4206 81.4353 59.8817 80.9756 60.1123C80.5159 60.4581 80.0562 60.5734 79.4816 60.8039C78.9069 60.9192 78.3323 61.0345 77.7577 61.0345C77.298 61.0345 76.8383 61.0345 76.3786 60.9192C75.9189 60.8039 75.4592 60.8039 74.9995 60.5734C74.5398 60.3428 74.0801 60.2275 73.7353 60.1123C73.2756 59.8817 72.9308 59.7664 72.5861 59.4206L73.8502 56.8845C73.8502 56.9997 74.0801 56.9997 74.3099 57.2303C74.5398 57.3456 74.8846 57.5761 75.2293 57.6914C75.5741 57.8067 76.0338 58.0372 76.4935 58.1525C76.9532 58.2678 77.4129 58.3831 77.8726 58.3831C78.9069 58.3831 79.3666 58.0372 79.3666 57.4608C79.3666 57.2303 79.2517 56.9997 79.1368 56.8845C79.0219 56.7692 78.792 56.6539 78.5622 56.4233C78.3323 56.3081 77.9875 56.1928 77.6428 56.0775C77.298 55.9622 76.8383 55.8469 76.4935 55.7317C75.9189 55.5011 75.4592 55.3858 74.9995 55.1553C74.5398 54.9247 74.195 54.6942 73.9652 54.4636C73.7353 54.233 73.5055 53.8872 73.3905 53.5414C73.2756 53.1955 73.1607 52.7344 73.1607 52.2733C73.1607 51.5816 73.2756 51.0052 73.5055 50.5441C73.7353 50.083 74.0801 49.6219 74.5398 49.276C74.9995 48.9302 75.4592 48.6996 76.0338 48.4691C76.6084 48.2385 77.1831 48.2385 77.7577 48.2385C78.2174 48.2385 78.5622 48.2385 79.0219 48.3538C79.4816 48.4691 79.8263 48.5844 80.1711 48.6996C80.5159 48.8149 80.8607 48.9302 81.2054 49.1608C81.5502 49.276 81.7801 49.5066 82.1248 49.6219L80.8607 51.8122Z" fill="white"/>
<path d="M88.3308 60.5734V48.2385H92.9278C93.9621 48.2385 94.8815 48.3538 95.5711 48.6996C96.3756 49.0455 96.9502 49.5066 97.5248 49.9677C97.9845 50.5441 98.4442 51.1205 98.6741 51.9275C98.9039 52.6191 99.0188 53.4261 99.0188 54.3483C99.0188 55.2705 98.9039 56.0775 98.5591 56.8845C98.2144 57.6914 97.8696 58.2678 97.295 58.8442C96.7203 59.4206 96.1457 59.7664 95.3412 60.1123C94.5368 60.4581 93.7323 60.5734 92.8129 60.5734H88.3308ZM96.1457 54.3483C96.1457 53.7719 96.0308 53.3108 95.9159 52.8497C95.8009 52.3886 95.5711 52.0427 95.3412 51.6969C95.1114 51.3511 94.7666 51.1205 94.3069 51.0052C93.8472 50.7747 93.5024 50.7747 92.9278 50.7747H91.2039V58.1525H92.9278C93.5024 58.1525 93.9621 58.0372 94.3069 57.922C94.7666 57.6914 94.9965 57.4608 95.3412 57.115C95.5711 56.7692 95.8009 56.4233 95.9159 55.9622C96.0308 55.3858 96.1457 54.9247 96.1457 54.3483Z" fill="white"/>
<path d="M109.362 58.0372V60.5734H100.743V48.2385H109.247V50.7747H103.616V53.1955H108.443V55.5011H103.616V58.1525H109.362V58.0372Z" fill="white"/>
<path d="M122.693 51.8122C122.693 51.8122 122.578 51.6969 122.349 51.5816C122.119 51.4663 121.889 51.3511 121.544 51.2358C121.199 51.1205 120.855 51.0052 120.51 50.8899C120.165 50.7747 119.82 50.7747 119.361 50.7747C118.326 50.7747 117.867 51.1205 117.867 51.8122C117.867 52.0427 117.867 52.158 117.981 52.3886C118.096 52.5039 118.211 52.6191 118.441 52.7344C118.671 52.8497 118.901 52.965 119.246 53.0802C119.59 53.1955 119.935 53.3108 120.395 53.4261C120.97 53.5414 121.544 53.7719 122.004 54.0025C122.464 54.233 122.923 54.4636 123.153 54.6942C123.498 54.9247 123.728 55.2705 123.958 55.7317C124.187 56.1928 124.187 56.6539 124.187 57.2303C124.187 57.922 124.073 58.4984 123.843 58.9595C123.613 59.4206 123.268 59.8817 122.808 60.1123C122.349 60.4581 121.889 60.5734 121.314 60.8039C120.74 60.9192 120.165 61.0345 119.59 61.0345C119.131 61.0345 118.671 61.0345 118.211 60.9192C117.752 60.8039 117.292 60.8039 116.832 60.5734C116.373 60.4581 115.913 60.2275 115.568 60.1123C115.108 59.8817 114.764 59.7664 114.419 59.4206L115.683 56.8845C115.683 56.9997 115.913 56.9997 116.143 57.2303C116.373 57.3456 116.717 57.5761 117.062 57.6914C117.407 57.8067 117.867 58.0372 118.326 58.1525C118.786 58.2678 119.246 58.3831 119.705 58.3831C120.74 58.3831 121.199 58.0372 121.199 57.4608C121.199 57.2303 121.084 56.9997 120.97 56.8845C120.855 56.7692 120.625 56.6539 120.395 56.4233C120.165 56.3081 119.82 56.1928 119.476 56.0775C119.131 55.9622 118.671 55.8469 118.326 55.7317C117.752 55.5011 117.292 55.3858 116.832 55.1553C116.373 54.9247 116.028 54.6942 115.798 54.4636C115.568 54.233 115.338 53.8872 115.223 53.5414C115.108 53.1955 114.993 52.7344 114.993 52.2733C114.993 51.5816 115.108 51.0052 115.338 50.5441C115.568 50.083 115.913 49.6219 116.373 49.276C116.832 48.9302 117.292 48.6996 117.867 48.4691C118.441 48.2385 119.016 48.2385 119.59 48.2385C120.05 48.2385 120.395 48.2385 120.855 48.3538C121.314 48.4691 121.659 48.5844 122.004 48.6996C122.349 48.8149 122.693 48.9302 123.038 49.1608C123.383 49.276 123.613 49.5066 123.958 49.6219L122.693 51.8122Z" fill="white"/>
<path d="M131.313 60.6886C130.393 60.6886 129.589 60.4581 128.784 60.1122C127.98 59.7664 127.405 59.3053 126.831 58.7289C126.256 58.1525 125.911 57.4608 125.567 56.7691C125.222 55.9622 125.107 55.2705 125.107 54.4635C125.107 53.6566 125.222 52.8496 125.567 52.158C125.911 51.351 126.256 50.7746 126.831 50.1982C127.405 49.6218 127.98 49.1607 128.784 48.8149C129.589 48.469 130.393 48.3538 131.198 48.3538C132.117 48.3538 132.922 48.5843 133.726 48.9302C134.531 49.276 135.105 49.7371 135.68 50.3135C136.255 50.8899 136.599 51.5816 136.944 52.2732C137.289 53.0802 137.404 53.7719 137.404 54.5788C137.404 55.3858 137.289 56.1927 136.944 56.8844C136.599 57.6914 136.255 58.2678 135.68 58.8441C135.105 59.4205 134.531 59.8817 133.726 60.2275C133.037 60.4581 132.232 60.6886 131.313 60.6886ZM128.095 54.4635C128.095 54.9247 128.21 55.3858 128.325 55.8469C128.44 56.308 128.669 56.6538 128.899 56.9997C129.129 57.3455 129.474 57.5761 129.934 57.8066C130.393 58.0372 130.853 58.1525 131.313 58.1525C131.887 58.1525 132.347 58.0372 132.692 57.8066C133.152 57.5761 133.381 57.3455 133.726 56.9997C133.956 56.6538 134.186 56.1927 134.301 55.8469C134.416 55.3858 134.531 54.9247 134.531 54.4635C134.531 54.0024 134.416 53.5413 134.301 53.0802C134.186 52.6191 133.956 52.2732 133.726 51.9274C133.496 51.5816 133.152 51.351 132.692 51.1205C132.347 50.8899 131.887 50.7746 131.313 50.7746C130.738 50.7746 130.278 50.8899 129.934 51.1205C129.589 51.351 129.244 51.5816 128.899 51.9274C128.669 52.2732 128.44 52.6191 128.325 53.0802C128.21 53.5413 128.095 54.0024 128.095 54.4635Z" fill="white"/>
<path d="M144.414 58.1525C144.874 58.1525 145.334 58.0372 145.678 57.8067C146.023 57.5761 146.253 57.3456 146.483 56.9997C146.713 56.6539 146.828 56.3081 146.943 55.8469C147.058 55.3858 147.058 54.9247 147.058 54.4636V48.2385H149.931V54.5789C149.931 55.3858 149.816 56.1928 149.586 56.9997C149.356 57.6914 149.011 58.3831 148.552 58.9595C148.092 59.5359 147.517 59.997 146.828 60.2275C146.138 60.5734 145.334 60.6887 144.414 60.6887C143.38 60.6887 142.575 60.5734 141.886 60.2275C141.196 59.8817 140.622 59.4206 140.162 58.8442C139.702 58.2678 139.358 57.5761 139.243 56.8845C139.013 56.1928 138.898 55.3858 138.898 54.5789V48.2385H141.771V54.5789C141.771 55.04 141.771 55.5011 141.886 55.9622C142.001 56.4233 142.116 56.7692 142.346 57.115C142.575 57.4608 142.805 57.6914 143.15 57.922C143.495 58.0372 143.955 58.1525 144.414 58.1525Z" fill="white"/>
<path d="M161.308 50.7747H157.516V60.5734H154.642V50.7747H150.85V48.2385H161.193L161.308 50.7747Z" fill="white"/>
<path d="M162.458 60.5734V48.2385H165.331V60.5734H162.458Z" fill="white"/>
<path d="M176.363 58.0372V60.5734H167.744V48.2385H176.248V50.7747H170.617V53.1955H175.444V55.5011H170.617V58.1525H176.363V58.0372Z" fill="white"/>
<path d="M181.19 53.5414V60.5734H178.317V48.2385H180.501L186.247 55.5011V48.2385H189.12V60.5734H186.822L181.19 53.5414Z" fill="white"/>
<path d="M199.004 48.2384H201.532L206.014 60.5733H203.141L202.222 57.8066H198.429L197.51 60.5733H194.636L199.004 48.2384ZM197.854 44.6648H200.383L201.302 46.9704L199.578 47.4315L197.854 44.6648ZM201.762 55.8469L200.383 51.4663L198.889 55.8469H201.762Z" fill="white"/>
<path d="M211.53 60.5734V48.2385H216.127C217.162 48.2385 218.081 48.3538 218.771 48.6996C219.575 49.0455 220.15 49.5066 220.724 49.9677C221.184 50.5441 221.644 51.1205 221.874 51.9275C222.103 52.6191 222.218 53.4261 222.218 54.3483C222.218 55.2705 222.104 56.0775 221.759 56.8845C221.414 57.6914 221.069 58.2678 220.495 58.8442C219.92 59.4206 219.345 59.7664 218.541 60.1123C217.736 60.4581 216.932 60.5734 216.012 60.5734H211.53ZM219.345 54.3483C219.345 53.7719 219.23 53.3108 219.115 52.8497C219.001 52.3886 218.771 52.0427 218.541 51.6969C218.311 51.3511 217.966 51.1205 217.507 51.0052C217.047 50.7747 216.702 50.7747 216.127 50.7747H214.404V58.1525H216.127C216.702 58.1525 217.162 58.0372 217.507 57.922C217.966 57.6914 218.196 57.4608 218.541 57.115C218.771 56.7692 219.001 56.4233 219.115 55.9622C219.23 55.3858 219.345 54.9247 219.345 54.3483Z" fill="white"/>
<path d="M229.344 60.6886C228.424 60.6886 227.62 60.4581 226.816 60.1122C226.011 59.7664 225.436 59.3053 224.862 58.7289C224.287 58.1525 223.942 57.4608 223.598 56.7691C223.253 55.9622 223.138 55.2705 223.138 54.4635C223.138 53.6566 223.253 52.8496 223.598 52.158C223.942 51.351 224.287 50.7746 224.862 50.1982C225.436 49.6218 226.011 49.1607 226.816 48.8149C227.62 48.469 228.424 48.3538 229.229 48.3538C230.148 48.3538 230.953 48.5843 231.757 48.9302C232.562 49.276 233.136 49.7371 233.711 50.3135C234.286 50.8899 234.63 51.5816 234.975 52.2732C235.32 53.0802 235.435 53.7719 235.435 54.5788C235.435 55.3858 235.32 56.1927 234.975 56.8844C234.63 57.6914 234.286 58.2678 233.711 58.8441C233.136 59.4205 232.562 59.8817 231.757 60.2275C231.068 60.4581 230.263 60.6886 229.344 60.6886ZM226.126 54.4635C226.126 54.9247 226.241 55.3858 226.356 55.8469C226.471 56.308 226.701 56.6538 226.93 56.9997C227.16 57.3455 227.505 57.5761 227.965 57.8066C228.424 58.0372 228.884 58.1525 229.344 58.1525C229.919 58.1525 230.378 58.0372 230.723 57.8066C231.183 57.5761 231.413 57.3455 231.757 56.9997C231.987 56.6538 232.217 56.1927 232.332 55.8469C232.447 55.3858 232.562 54.9247 232.562 54.4635C232.562 54.0024 232.447 53.5413 232.332 53.0802C232.217 52.6191 231.987 52.2732 231.757 51.9274C231.527 51.5816 231.183 51.351 230.723 51.1205C230.378 50.8899 229.919 50.7746 229.344 50.7746C228.769 50.7746 228.31 50.8899 227.965 51.1205C227.62 51.351 227.275 51.5816 226.93 51.9274C226.586 52.2732 226.471 52.6191 226.356 53.0802C226.241 53.5413 226.126 54.0024 226.126 54.4635Z" fill="white"/>
<path d="M246.927 60.5734V53.1955L244.284 58.6136H242.79L240.032 53.1955V60.5734H237.159V48.2385H240.262L243.48 54.6942L246.697 48.2385H249.8V60.5734H246.927Z" fill="white"/>
<path d="M252.214 60.5734V48.2385H255.087V60.5734H252.214Z" fill="white"/>
<path d="M256.811 54.3483C256.811 53.6566 256.926 52.8497 257.271 52.158C257.5 51.4663 257.96 50.7747 258.535 50.1983C259.109 49.6219 259.684 49.1608 260.489 48.8149C261.293 48.4691 262.097 48.2385 263.132 48.2385C264.281 48.2385 265.315 48.4691 266.12 48.9302C266.924 49.3913 267.614 50.083 267.959 50.8899L265.66 52.3886C265.545 52.0427 265.315 51.8122 265.086 51.5816C264.856 51.3511 264.626 51.2358 264.396 51.0052C264.166 50.8899 263.936 50.7747 263.591 50.7747C263.362 50.7747 263.017 50.6594 262.787 50.6594C262.212 50.6594 261.753 50.7747 261.408 51.0052C260.948 51.2358 260.718 51.4663 260.374 51.8122C260.144 52.158 259.914 52.5039 259.799 52.965C259.684 53.4261 259.569 53.8872 259.569 54.3483C259.569 54.8094 259.684 55.2705 259.799 55.7317C259.914 56.1928 260.144 56.5386 260.489 56.8845C260.718 57.2303 261.063 57.4608 261.523 57.6914C261.868 57.922 262.327 58.0372 262.902 58.0372C263.132 58.0372 263.362 58.0372 263.706 57.922C263.936 57.8067 264.281 57.8067 264.511 57.5761C264.741 57.4609 264.971 57.2303 265.2 56.9997C265.43 56.7692 265.545 56.5386 265.66 56.1928L267.959 57.5761C267.729 58.0372 267.499 58.3831 267.154 58.8442C266.809 59.19 266.35 59.5359 265.89 59.7664C265.43 59.997 264.971 60.2275 264.396 60.3428C263.821 60.4581 263.362 60.5734 262.787 60.5734C261.868 60.5734 261.063 60.3428 260.374 59.997C259.684 59.6512 258.994 59.19 258.42 58.4984C257.845 57.922 257.5 57.2303 257.156 56.4233C256.926 55.8469 256.811 55.04 256.811 54.3483Z" fill="white"/>
<path d="M269.453 60.5734V48.2385H272.326V60.5734H269.453Z" fill="white"/>
<path d="M274.739 60.5734V48.2385H277.612V58.0372H283.588V60.5734H274.739Z" fill="white"/>
<path d="M293.357 58.0372V60.5734H284.738V48.2385H293.242V50.7747H287.611V53.1955H292.438V55.5011H287.611V58.1525H293.357V58.0372Z" fill="white"/>
<path d="M10.1819 77.058V79.5942H1.5625V67.144H10.067V69.6802H4.43562V72.101H9.26248V74.4066H4.43562V77.058H10.1819Z" fill="white"/>
<path d="M21.3296 69.6802H17.5371V79.4789H14.7789V69.6802H10.9863V67.144H21.3296V69.6802Z" fill="white"/>
<path d="M35.5802 77.058V79.5942H26.9608V67.144H35.4653V69.6802H29.8339V72.101H34.6608V74.4066H29.8339V77.058H35.5802Z" fill="white"/>
<path d="M40.4071 72.4469V79.4789H37.5339V67.144H39.7175L45.4638 74.4066V67.144H48.3369V79.4789H46.0384L40.4071 72.4469Z" fill="white"/>
<path d="M64.5414 79.4789V72.101L61.8981 77.5192H60.4041L57.7608 72.101V79.4789H54.8877V67.144H57.9907L61.2086 73.5997L64.4265 67.144H67.5294V79.4789H64.5414Z" fill="white"/>
<path d="M69.8279 79.4789V67.144H72.701V79.4789H69.8279Z" fill="white"/>
<path d="M75.1145 79.4789V67.144H77.9876V76.9428H83.9637V79.4789H75.1145Z" fill="white"/>
<path d="M85.113 79.4789V67.144H87.9862V79.4789H85.113Z" fill="white"/>
<path d="M99.0189 77.058V79.5942H90.3995V67.144H98.904V69.6802H93.2727V72.101H98.0995V74.4066H93.2727V77.058H99.0189Z" fill="white"/>
<path d="M106.144 77.0583C106.604 77.0583 107.064 76.9431 107.408 76.7125C107.753 76.4819 107.983 76.2514 108.213 75.9055C108.443 75.5597 108.558 75.2139 108.673 74.7527C108.787 74.2916 108.787 73.8305 108.787 73.3694V67.0291H111.661V73.3694C111.661 74.1764 111.546 74.9833 111.316 75.7903C111.086 76.4819 110.741 77.1736 110.282 77.75C109.822 78.3264 109.247 78.7875 108.558 79.0181C107.868 79.3639 107.064 79.4792 106.144 79.4792C105.11 79.4792 104.305 79.3639 103.616 79.0181C102.926 78.6722 102.352 78.2111 101.892 77.6347C101.432 77.0583 101.088 76.3667 100.973 75.675C100.743 74.9833 100.628 74.1764 100.628 73.3694V67.0291H103.501V73.3694C103.501 73.8305 103.501 74.2916 103.616 74.7527C103.731 75.2139 103.846 75.5597 104.076 75.9055C104.305 76.2514 104.535 76.4819 104.88 76.7125C105.225 76.9431 105.685 77.0583 106.144 77.0583Z" fill="white"/>
<path d="M117.292 73.2538C117.292 72.5622 117.407 71.7552 117.752 71.0635C117.982 70.3719 118.441 69.6802 119.016 69.1038C119.59 68.5274 120.165 68.0663 120.97 67.7204C121.774 67.3746 122.579 67.144 123.613 67.144C124.762 67.144 125.796 67.3746 126.601 67.8357C127.405 68.2968 128.095 68.9885 128.44 69.7955L126.256 71.2941C126.141 70.9482 125.911 70.7177 125.682 70.4871C125.452 70.2566 125.222 70.1413 124.992 69.9107C124.762 69.7955 124.532 69.6802 124.187 69.6802C123.958 69.6802 123.613 69.5649 123.383 69.5649C122.808 69.5649 122.349 69.6802 122.004 69.9107C121.544 70.1413 121.314 70.3719 120.97 70.7177C120.74 71.0635 120.51 71.4094 120.395 71.8705C120.28 72.3316 120.165 72.7927 120.165 73.2538C120.165 73.715 120.28 74.1761 120.395 74.6372C120.51 75.0983 120.74 75.4441 121.085 75.79C121.314 76.1358 121.659 76.3664 122.119 76.5969C122.464 76.8275 122.923 76.9428 123.498 76.9428C123.728 76.9428 123.958 76.9428 124.302 76.8275C124.532 76.7122 124.877 76.7122 125.107 76.4816C125.337 76.3664 125.567 76.1358 125.796 75.9052C126.026 75.6747 126.141 75.4441 126.256 75.0983L128.555 76.4816C128.325 76.9428 128.095 77.2886 127.75 77.7497C127.405 78.0955 126.946 78.4414 126.486 78.6719C126.026 78.9025 125.567 79.1331 124.992 79.2483C124.417 79.3636 123.958 79.4789 123.383 79.4789C122.464 79.4789 121.659 79.2483 120.97 78.9025C120.28 78.5567 119.59 78.0956 119.016 77.4039C118.441 76.8275 118.096 76.1358 117.752 75.3289C117.407 74.7525 117.292 74.0608 117.292 73.2538Z" fill="white"/>
<path d="M135.105 79.5944C134.186 79.5944 133.381 79.3638 132.577 79.018C131.773 78.6722 131.198 78.211 130.623 77.6346C130.049 77.0582 129.704 76.3666 129.359 75.6749C129.014 74.9832 128.899 74.1763 128.899 73.3693C128.899 72.5624 129.014 71.7554 129.359 71.0637C129.704 70.2568 130.049 69.6804 130.623 69.104C131.198 68.5276 131.773 68.0665 132.577 67.7206C133.381 67.3748 134.186 67.2595 134.99 67.2595C135.91 67.2595 136.714 67.4901 137.519 67.8359C138.323 68.1818 138.898 68.6429 139.473 69.2193C140.047 69.7957 140.392 70.4873 140.737 71.179C141.081 71.986 141.196 72.6776 141.196 73.4846C141.196 74.2915 141.081 75.0985 140.737 75.7902C140.392 76.5971 140.047 77.1735 139.473 77.7499C138.898 78.3263 138.323 78.7874 137.519 79.1333C136.714 79.4791 135.91 79.5944 135.105 79.5944ZM131.887 73.3693C131.887 73.8304 132.002 74.2915 132.117 74.7527C132.232 75.2138 132.462 75.5596 132.692 75.9054C132.922 76.2513 133.267 76.4818 133.726 76.7124C134.186 76.943 134.646 77.0582 135.105 77.0582C135.68 77.0582 136.14 76.943 136.484 76.7124C136.944 76.4818 137.174 76.2513 137.519 75.9054C137.749 75.5596 137.978 75.0985 138.093 74.7527C138.208 74.2915 138.323 73.8304 138.323 73.3693C138.323 72.9082 138.208 72.4471 138.093 71.986C137.978 71.5248 137.749 71.179 137.519 70.8332C137.289 70.4873 136.944 70.2568 136.484 70.0262C136.14 69.7957 135.68 69.6804 135.105 69.6804C134.531 69.6804 134.071 69.7957 133.726 70.0262C133.381 70.2568 133.037 70.4873 132.692 70.8332C132.462 71.179 132.232 71.5248 132.117 71.986C131.887 72.4471 131.887 72.9082 131.887 73.3693Z" fill="white"/>
<path d="M152.574 79.4789V72.101L149.931 77.5192H148.437L145.793 72.101V79.4789H142.92V67.144H146.023L149.241 73.5997L152.459 67.144H155.562V79.4789H152.574Z" fill="white"/>
<path d="M167.629 79.4789V72.101L164.986 77.5192H163.492L160.849 72.101V79.4789H157.975V67.144H161.078L164.296 73.5997L167.514 67.144H170.617V79.4789H167.629Z" fill="white"/>
<path d="M178.202 77.0583C178.662 77.0583 179.122 76.9431 179.466 76.7125C179.811 76.4819 180.041 76.2514 180.271 75.9055C180.501 75.5597 180.616 75.2139 180.731 74.7527C180.845 74.2916 180.845 73.8305 180.845 73.3694V67.0291H183.719V73.3694C183.719 74.1764 183.604 74.9833 183.374 75.7903C183.144 76.5972 182.799 77.1736 182.339 77.75C181.88 78.3264 181.305 78.7875 180.616 79.0181C179.926 79.3639 179.122 79.4792 178.202 79.4792C177.168 79.4792 176.363 79.3639 175.674 79.0181C174.984 78.6722 174.41 78.2111 173.95 77.6347C173.49 77.0583 173.145 76.3667 173.031 75.675C172.801 74.9833 172.686 74.1764 172.686 73.3694V67.0291H175.559V73.3694C175.559 73.8305 175.559 74.2916 175.674 74.7527C175.789 75.2139 175.904 75.5597 176.134 75.9055C176.363 76.2514 176.593 76.4819 176.938 76.7125C177.283 76.9431 177.742 77.0583 178.202 77.0583Z" fill="white"/>
<path d="M188.775 72.4469V79.4789H185.902V67.144H188.086L193.832 74.4066V67.144H196.705V79.4789H194.407L188.775 72.4469Z" fill="white"/>
<path d="M202.336 67.144H204.865L209.347 79.4789H206.474L205.554 76.7122H201.762L200.842 79.4789H197.969L202.336 67.144ZM205.095 74.7525L203.601 70.3719L202.107 74.7525H205.095Z" fill="white"/>
<path d="M215.323 77.0583C215.783 77.0583 216.242 76.9431 216.587 76.7125C216.932 76.4819 217.162 76.2514 217.392 75.9055C217.622 75.5597 217.736 75.2139 217.851 74.7527C217.966 74.2916 217.966 73.8305 217.966 73.3694V67.0291H220.839V73.3694C220.839 74.1764 220.725 74.9833 220.495 75.7903C220.265 76.4819 219.92 77.1736 219.46 77.75C219.001 78.3264 218.426 78.7875 217.736 79.0181C217.047 79.3639 216.242 79.4792 215.323 79.4792C214.289 79.4792 213.484 79.3639 212.795 79.0181C212.105 78.6722 211.531 78.2111 211.071 77.6347C210.611 77.0583 210.266 76.3667 210.151 75.675C209.922 74.9833 209.807 74.1764 209.807 73.3694V67.0291H212.68V73.3694C212.68 73.8305 212.68 74.2916 212.795 74.7527C212.91 75.2139 213.025 75.5597 213.254 75.9055C213.484 76.2514 213.714 76.4819 214.059 76.7125C214.519 76.9431 214.863 77.0583 215.323 77.0583Z" fill="white"/>
<path d="M232.217 69.6802H228.539V79.4789H225.666V69.6802H221.874V67.144H232.217V69.6802Z" fill="white"/>
<path d="M235.55 67.144H238.078L242.56 79.4789H239.687L238.768 76.7122H234.975L234.056 79.4789H231.183L235.55 67.144ZM238.308 74.7525L236.814 70.3719L235.32 74.7525H238.308Z" fill="white"/>
<path d="M243.709 79.4789V67.144H246.583V79.4789H243.709Z" fill="white"/>
<path d="M249.111 79.4789V67.144H254.627C255.202 67.144 255.777 67.2593 256.236 67.4899C256.696 67.7204 257.156 68.0663 257.5 68.4121C257.845 68.7579 258.19 69.2191 258.305 69.7955C258.535 70.2566 258.65 70.833 258.65 71.2941C258.65 71.6399 258.65 71.9858 258.535 72.4469C258.42 72.7927 258.305 73.1386 258.19 73.4844C257.96 73.8302 257.845 74.0608 257.615 74.2913C257.386 74.5219 257.041 74.7525 256.811 74.983L259.454 79.5942H256.121L253.823 75.6747H251.984V79.5942L249.111 79.4789ZM251.869 73.0233H254.512C254.857 73.0233 255.087 72.908 255.432 72.5622C255.777 72.2163 255.777 71.8705 255.777 71.2941C255.777 70.833 255.662 70.3719 255.317 70.026C255.087 69.6802 254.742 69.5649 254.398 69.5649H251.869V73.0233Z" fill="white"/>
<path d="M269.338 77.058V79.5942H260.718V67.144H269.223V69.6802H263.592V72.101H268.418V74.4066H263.592V77.058H269.338Z" fill="white"/>
</svg>
