<?xml version="1.0" encoding="UTF-8"?>
<svg id="Layer_2" data-name="Layer 2" xmlns="http://www.w3.org/2000/svg" viewBox="0 0 448.7 120.33">
  <defs>
    <style>
      .cls-1 {
        fill: #b3b5b7;
      }

      .cls-1, .cls-2, .cls-3 {
        stroke-width: 0px;
      }

      .cls-2 {
        fill: #faea13;
      }

      .cls-3 {
        fill: #0b8da7;
      }
    </style>
  </defs>
  <g id="Layer_1-2" data-name="Layer 1">
    <g>
      <g>
        <g>
          <path class="cls-3" d="m151.9,119.99h-1.87v-17.99h1.87v17.99Z"/>
          <path class="cls-3" d="m173.56,116.95v-14.95h1.85v17.99h-1.85l-11.08-14.98v14.98h-1.85v-17.99h1.85l11.08,14.95Z"/>
          <path class="cls-3" d="m184.43,114.4v-1.79h7.02v1.79h-7.02Z"/>
          <path class="cls-3" d="m201.95,119.99h-1.85v-17.99h1.85v8.09h11.08v-8.09h1.85v17.99h-1.85v-8.11h-11.08v8.11Z"/>
          <path class="cls-3" d="m241.44,110.99c0,5.17-4.16,9.33-9.33,9.33s-9.36-4.16-9.36-9.33,4.19-9.33,9.36-9.33,9.33,4.16,9.33,9.33Zm-1.85,0c0-4.13-3.35-7.49-7.49-7.49s-7.49,3.35-7.49,7.49,3.35,7.49,7.49,7.49,7.49-3.35,7.49-7.49Z"/>
          <path class="cls-3" d="m257.56,117.96l6.4-15.96h1.85v17.99h-1.85v-13.23l-5.43,13.23h-1.92l-5.41-13.23v13.23h-1.87v-17.99h1.87l6.37,15.96Z"/>
          <path class="cls-3" d="m274.57,102h13.1v1.77h-11.26v6.08h9.54v1.77h-9.54v6.6h11.26v1.77h-13.1v-17.99Z"/>
          <path class="cls-3" d="m323.34,113.46c-1.09,3.98-4.71,6.86-9,6.86-5.17,0-9.36-4.16-9.36-9.33s4.19-9.33,9.36-9.33c4.29,0,7.9,2.89,9,6.84h-1.92c-1.04-2.91-3.8-4.99-7.07-4.99-4.13,0-7.49,3.35-7.49,7.49s3.35,7.49,7.49,7.49c3.28,0,6.03-2.08,7.07-5.02h1.92Z"/>
          <path class="cls-3" d="m335.67,102h2l7.2,17.99h-2l-1.38-3.54h-9.65l-1.4,3.54h-2l7.23-17.99Zm-3.15,12.69h8.29l-4.16-10.5-4.13,10.5Z"/>
          <path class="cls-3" d="m351.53,102h8.24c3.02,0,5.41,2.37,5.41,5.46,0,2.73-1.82,4.89-4.32,5.38l4.65,7.15h-2.13l-4.52-7.05h-5.46v7.05h-1.87v-17.99Zm7.8,9.18c2.26,0,3.98-1.51,3.98-3.72s-1.72-3.69-3.98-3.69h-5.93v7.41h5.93Z"/>
          <path class="cls-3" d="m373.57,102h13.1v1.77h-11.26v6.08h9.54v1.77h-9.54v6.6h11.26v1.77h-13.1v-17.99Z"/>
        </g>
        <g>
          <path class="cls-3" d="m178.18,67.34c3.4,2.28,5.2,5.24,5.41,8.88-.35,7.32-4.25,11.19-11.72,11.62l-21.84-.03v-38.79h20.6c6.54.38,9.99,4.18,10.35,11.41-.12,3.45-1.05,5.75-2.79,6.91Zm-20.37-2.77h10.87c3.12-.05,4.73-1.66,4.81-4.84-.09-1.9-1.67-2.9-4.74-3h-10.95v7.84Zm0,17.18h12.68c3.64-.05,5.5-1.92,5.59-5.62-.09-2.48-1.92-3.78-5.51-3.88h-12.76v9.5Z"/>
          <path class="cls-3" d="m189.29,87.81l15.53-38.82h7.76l15.5,38.79-8.26.03-2.33-5.95h-17.6l-2.33,5.95h-8.28Zm19.62-28.47l-5.9,14.75h11.65l-5.75-14.75Z"/>
          <path class="cls-3" d="m257.24,70.89l9.68,16.92h-8.9l-9.29-16.04h-7.09v16.04h-7.76v-38.82h16.92c9.06,0,13.59,3.73,13.59,11.18,0,5.61-2.38,9.18-7.14,10.71Zm-15.6-6.37h10.87c3.12-.05,4.73-1.48,4.81-4.27-.09-2.55-1.67-3.88-4.74-3.99h-10.95v8.26Z"/>
          <path class="cls-3" d="m302.64,48.99v7.25h-12.94v31.57h-7.76v-31.57h-12.94v-7.25h33.64Z"/>
          <path class="cls-3" d="m316.25,48.99v31.57h20.7v7.25h-28.47v-38.82h7.76Z"/>
          <path class="cls-3" d="m343.24,87.81v-38.79l28.52-.03v7.25h-20.75v8.28h15.55v7.22h-15.55v8.82h20.7v7.25h-28.47Z"/>
          <path class="cls-3" d="m411.25,48.99v7.25h-12.94v31.57h-7.76v-31.57h-12.94v-7.25h33.64Z"/>
          <path class="cls-3" d="m448.7,48.99v7.25h-12.94v31.57h-7.76v-31.57h-12.94v-7.25h33.64Z"/>
        </g>
      </g>
      <g>
        <path class="cls-2" d="m62.29,7.52L7,45.06v68.27h29.09c10.54,0,23.27-10.38,23.27-23.27,0-1.38,1.12-2.5,2.5-2.5h.87c1.38,0,2.5,1.12,2.5,2.5,0,12.89,12.73,23.27,23.27,23.27h29.09V45.06L62.29,7.52Z"/>
        <path class="cls-1" d="m87.94,44.48c-5.38-5.16-13.82-4.87-19.09.41-1.51,1.51-6.55,6.86-6.55,6.86,0,0-4.42-4.73-6.55-6.86-5.27-5.27-13.7-5.57-19.09-.41-5.38,5.16-5.68,13.82-.41,19.09,3.64,3.64,26.05,26.77,26.05,26.77,0,0,20.47-21.2,26.05-26.77,5.27-5.27,4.98-13.93-.41-19.09Z"/>
        <path class="cls-3" d="m122.62,40.01L64.82.78c-1.53-1.04-3.53-1.04-5.05,0L1.97,40.01c-1.23.84-1.97,2.23-1.97,3.72v72.09c0,2.49,2.01,4.5,4.5,4.5h31.59c9.7,0,20.49-6.35,26.2-15.92,5.71,9.57,16.5,15.92,26.2,15.92h31.59c2.49,0,4.5-2.01,4.5-4.5V43.74c0-1.49-.74-2.89-1.97-3.72Zm-60.48,43.85c-6.36-6.56-20.04-20.66-22.86-23.48-1.62-1.62-2.5-3.81-2.48-6.16.03-2.44,1.05-4.81,2.82-6.5,1.72-1.65,3.92-2.47,6.14-2.47,2.38,0,4.79.94,6.65,2.81,2.06,2.06,6.41,6.7,6.45,6.75.85.91,2.04,1.42,3.28,1.43h0c1.24,0,2.42-.51,3.27-1.41.05-.05,5.02-5.32,6.46-6.76,3.61-3.61,9.23-3.76,12.79-.34,1.76,1.69,2.79,4.06,2.82,6.5.02,2.35-.86,4.53-2.48,6.16-4.25,4.25-16.86,17.27-22.87,23.48Zm53.45,27.46h-27.09c-9.17,0-20.29-9.01-21.2-19.84,5.22-5.39,19.59-20.25,24.08-24.73,3.35-3.35,5.16-7.83,5.11-12.62-.05-4.84-2.09-9.55-5.59-12.9h0c-7.13-6.83-18.28-6.63-25.38.47-.69.69-2.05,2.11-3.37,3.49-1.2-1.26-2.48-2.59-3.38-3.49-7.1-7.1-18.25-7.31-25.38-.47-3.5,3.35-5.54,8.06-5.59,12.9-.05,4.79,1.77,9.27,5.11,12.62,3,3,19.12,19.63,24.36,25.02-1.09,10.7-12.08,19.55-21.17,19.55H9V46.12L62.29,9.94l53.3,36.18v65.21Z"/>
      </g>
    </g>
  </g>
</svg>