<?xml version="1.0" encoding="utf-8"?>
<!-- Generator: Adobe Illustrator 28.0.0, SVG Export Plug-In . SVG Version: 6.00 Build 0)  -->
<svg version="1.1" id="Layer_2_00000180325501097779991220000010165968396765518727_"
	 xmlns="http://www.w3.org/2000/svg" xmlns:xlink="http://www.w3.org/1999/xlink" x="0px" y="0px" viewBox="0 0 124.6 120.3"
	 style="enable-background:new 0 0 124.6 120.3;" xml:space="preserve">
<style type="text/css">
	.st0{fill:#FFFFFF;}
</style>
<g id="Layer_1-2">
	<g>
		<g>
			<path class="st0" d="M122.6,40L64.8,0.8c-1.5-1-3.5-1-5,0L2,40c-1.2,0.8-2,2.2-2,3.7v72.1c0,2.5,2,4.5,4.5,4.5h31.6
				c9.7,0,20.5-6.3,26.2-15.9c5.7,9.6,16.5,15.9,26.2,15.9h31.6c2.5,0,4.5-2,4.5-4.5V43.7C124.6,42.2,123.8,40.9,122.6,40L122.6,40z
				 M62.1,56.2c1.2,0,2.4-0.5,3.3-1.4c0.1,0,5-5.3,6.5-6.8c3.6-3.6,9.2-3.8,12.8-0.3c1.8,1.7,2.8,4.1,2.8,6.5c0,2.3-0.9,4.5-2.5,6.2
				c-4.2,4.2-16.9,17.3-22.9,23.5l0,0c-6.4-6.6-20-20.7-22.9-23.5c-1.6-1.6-2.5-3.8-2.5-6.2c0-2.4,1-4.8,2.8-6.5
				c1.7-1.7,3.9-2.5,6.1-2.5c2.4,0,4.8,0.9,6.7,2.8c2.1,2.1,6.4,6.7,6.5,6.8 M115.6,111.3H88.5c-9.2,0-20.3-9-21.2-19.8
				c5.2-5.4,19.6-20.2,24.1-24.7c3.3-3.3,5.2-7.8,5.1-12.6c-0.1-4.8-2.1-9.5-5.6-12.9l0,0c-7.1-6.8-18.3-6.6-25.4,0.5
				c-0.7,0.7-2,2.1-3.4,3.5c-1.2-1.3-2.5-2.6-3.4-3.5c-7.1-7.1-18.2-7.3-25.4-0.5c-3.5,3.3-5.5,8.1-5.6,12.9c0,4.8,1.8,9.3,5.1,12.6
				c3,3,19.1,19.6,24.4,25c-1.1,10.7-12.1,19.6-21.2,19.6H9V46.1L62.3,9.9l53.3,36.2L115.6,111.3L115.6,111.3z"/>
		</g>
	</g>
</g>
</svg>
