<?xml version="1.0" encoding="utf-8"?>
<!-- Generator: Adobe Illustrator 28.0.0, SVG Export Plug-In . SVG Version: 6.00 Build 0)  -->
<svg version="1.1" id="Layer_1" xmlns="http://www.w3.org/2000/svg" xmlns:xlink="http://www.w3.org/1999/xlink" x="0px" y="0px"
	 viewBox="0 0 456 290" style="enable-background:new 0 0 456 290;" xml:space="preserve">
<style type="text/css">
	.st0{opacity:5.000000e-02;fill:#FFFFFF;enable-background:new    ;}
</style>
<path class="st0" d="M455.5,107.5c0-59.3-48.1-107.4-107.4-107.4S240.7,48.2,240.7,107.5c0,56,42.8,101.9,97.5,106.9
	c-1,40.5-27.7,74.7-27.7,74.7C466.5,211.2,455.5,107.5,455.5,107.5L455.5,107.5z"/>
<path class="st0" d="M214.7,107.5c0-59.3-48.1-107.4-107.4-107.4C48.1,0.2,0,48.2,0,107.5c0,56,42.8,101.9,97.5,106.9
	c-1,40.5-27.7,74.7-27.7,74.7C225.8,211.2,214.7,107.5,214.7,107.5z"/>
</svg>
